<?xml version="1.0" encoding="utf-8"?>
<svg viewBox="0 0 28.101 25" xmlns="http://www.w3.org/2000/svg">
  <path d="M 23.104 8.102 C 22.813 8.002 22.51 7.908 22.198 7.817 C 22.249 7.609 22.296 7.402 22.339 7.2 C 23.024 3.876 22.576 1.199 21.048 0.318 C 19.581 -0.527 17.184 0.354 14.762 2.46 C 14.529 2.662 14.296 2.879 14.062 3.102 C 13.907 2.954 13.751 2.811 13.598 2.672 C 11.059 0.419 8.517 -0.53 6.989 0.354 C 5.524 1.201 5.09 3.718 5.708 6.868 C 5.766 7.173 5.836 7.483 5.916 7.798 C 5.554 7.902 5.207 8.01 4.876 8.128 C 1.899 9.163 0 10.79 0 12.475 C 0 14.218 2.039 15.962 5.137 17.024 C 5.382 17.106 5.637 17.185 5.898 17.262 C 5.813 17.602 5.74 17.936 5.677 18.262 C 5.088 21.359 5.549 23.816 7.01 24.66 C 8.518 25.528 11.049 24.634 13.515 22.48 C 13.71 22.309 13.906 22.128 14.102 21.94 C 14.355 22.184 14.611 22.415 14.861 22.635 C 17.249 24.689 19.608 25.519 21.068 24.671 C 22.574 23.801 23.064 21.16 22.427 17.947 C 22.379 17.703 22.323 17.452 22.26 17.196 C 22.438 17.144 22.612 17.088 22.783 17.033 C 26.003 15.967 28.101 14.242 28.101 12.475 C 28.101 10.784 26.139 9.146 23.104 8.102 L 23.104 8.102 L 23.104 8.102 Z" style="fill: rgb(51, 51, 51);"/>
  <path d="M 22.376 15.875 C 22.222 15.924 22.064 15.973 21.904 16.02 C 21.55 14.896 21.068 13.701 20.483 12.466 C 21.042 11.261 21.502 10.08 21.849 8.963 C 22.136 9.045 22.414 9.134 22.682 9.226 C 25.279 10.12 26.863 11.443 26.863 12.459 C 26.863 13.544 25.151 14.953 22.376 15.875 L 22.376 15.875 L 22.376 15.875 Z M 21.223 18.157 C 21.502 19.575 21.544 20.858 21.358 21.858 C 21.192 22.761 20.854 23.362 20.44 23.601 C 19.554 24.115 17.664 23.449 15.625 21.693 C 15.39 21.492 15.155 21.278 14.919 21.051 C 15.709 20.187 16.499 19.18 17.269 18.063 C 18.629 17.944 19.908 17.746 21.071 17.479 C 21.127 17.708 21.179 17.934 21.223 18.157 L 21.223 18.157 L 21.223 18.157 Z M 9.567 23.515 C 8.704 23.819 8.015 23.827 7.6 23.589 C 6.713 23.076 6.348 21.106 6.849 18.464 C 6.907 18.161 6.974 17.848 7.055 17.531 C 8.203 17.786 9.476 17.969 10.834 18.078 C 11.612 19.17 12.425 20.176 13.243 21.055 C 13.065 21.228 12.888 21.394 12.71 21.546 C 11.621 22.5 10.53 23.175 9.567 23.515 L 9.567 23.515 L 9.567 23.515 Z M 5.521 15.867 C 4.153 15.4 3.022 14.79 2.248 14.128 C 1.553 13.531 1.201 12.941 1.201 12.459 C 1.201 11.439 2.723 10.135 5.264 9.247 C 5.571 9.142 5.895 9.04 6.231 8.946 C 6.583 10.088 7.041 11.281 7.597 12.489 C 7.035 13.715 6.567 14.929 6.212 16.082 C 5.975 16.015 5.742 15.942 5.521 15.867 L 5.521 15.867 L 5.521 15.867 Z M 6.877 6.629 C 6.351 3.936 6.699 1.902 7.583 1.393 C 8.519 0.848 10.596 1.625 12.783 3.565 C 12.923 3.692 13.065 3.822 13.206 3.954 C 12.39 4.831 11.584 5.827 10.814 6.915 C 9.496 7.034 8.232 7.232 7.071 7.497 C 6.998 7.201 6.934 6.911 6.877 6.629 L 6.877 6.629 L 6.877 6.629 Z M 18.981 9.62 C 18.703 9.14 18.418 8.673 18.129 8.216 C 19.024 8.33 19.881 8.481 20.687 8.663 C 20.444 9.439 20.143 10.249 19.79 11.08 C 19.534 10.597 19.264 10.11 18.981 9.62 L 18.981 9.62 L 18.981 9.62 Z M 14.044 4.812 C 14.597 5.411 15.152 6.08 15.697 6.803 C 15.15 6.78 14.594 6.766 14.032 6.766 C 13.477 6.766 12.925 6.778 12.38 6.803 C 12.925 6.086 13.484 5.416 14.044 4.812 L 14.044 4.812 L 14.044 4.812 Z M 9.078 9.627 C 8.8 10.11 8.536 10.594 8.287 11.079 C 7.936 10.252 7.64 9.436 7.393 8.651 C 8.194 8.472 9.047 8.324 9.937 8.214 C 9.644 8.675 9.355 9.147 9.078 9.627 L 9.078 9.627 L 9.078 9.627 Z M 9.961 16.791 C 9.044 16.689 8.179 16.55 7.378 16.376 C 7.623 15.577 7.93 14.744 8.288 13.898 C 8.537 14.383 8.802 14.867 9.083 15.35 L 9.083 15.35 C 9.365 15.842 9.66 16.321 9.961 16.791 L 9.961 16.791 L 9.961 16.791 Z M 14.078 20.191 C 13.51 19.579 12.945 18.901 12.39 18.172 C 12.927 18.193 13.475 18.204 14.032 18.204 C 14.605 18.204 15.169 18.19 15.724 18.165 C 15.178 18.907 14.629 19.589 14.078 20.191 L 14.078 20.191 L 14.078 20.191 Z M 19.799 13.857 C 20.176 14.71 20.493 15.536 20.742 16.325 C 19.929 16.51 19.051 16.659 18.124 16.772 C 18.416 16.307 18.703 15.832 18.985 15.341 C 19.271 14.847 19.544 14.349 19.799 13.857 L 19.799 13.857 L 19.799 13.857 Z M 17.947 14.743 C 17.51 15.502 17.057 16.23 16.601 16.916 C 15.768 16.974 14.908 17.005 14.032 17.005 C 13.159 17.005 12.309 16.978 11.49 16.924 C 11.015 16.231 10.556 15.501 10.12 14.75 L 10.12 14.75 C 9.685 14 9.284 13.242 8.922 12.489 C 9.284 11.735 9.683 10.976 10.116 10.226 L 10.116 10.226 C 10.549 9.475 11.005 8.749 11.477 8.06 C 12.31 7.998 13.168 7.964 14.032 7.964 L 14.032 7.964 C 14.901 7.964 15.757 7.998 16.591 8.061 C 17.055 8.746 17.509 9.469 17.943 10.221 C 18.384 10.98 18.788 11.734 19.153 12.473 C 18.789 13.223 18.386 13.983 17.947 14.743 L 17.947 14.743 L 17.947 14.743 Z M 20.42 1.356 C 21.359 1.898 21.726 4.086 21.136 6.951 C 21.096 7.133 21.055 7.32 21.009 7.507 C 19.845 7.24 18.582 7.039 17.258 6.916 C 16.485 5.817 15.686 4.818 14.887 3.954 C 15.099 3.748 15.316 3.549 15.53 3.363 C 17.602 1.56 19.538 0.847 20.42 1.356 L 20.42 1.356 L 20.42 1.356 Z" fill="#FFFFFF" style=""/>
  <path d="M 14.032 9.954 C 15.416 9.954 16.539 11.075 16.539 12.459 C 16.539 13.844 15.416 14.965 14.032 14.965 C 12.649 14.965 11.527 13.844 11.527 12.459 C 11.527 11.075 12.649 9.954 14.032 9.954" style="fill: rgb(51, 51, 51);"/>
</svg>