<?xml version="1.0" encoding="utf-8"?>
<svg viewBox="0 0 25 25" xmlns="http://www.w3.org/2000/svg">
  <polygon points="0 12.499 0 25 12.501 25 25 25 25 12.499 25 0 12.501 0 0 0" style="fill: rgb(51, 51, 51);"/>
  <path d="M 15.684 21.54 L 15.69 20.707 L 14.366 20.707 L 13.043 20.707 L 13.043 16.946 L 13.043 13.186 L 12.107 13.186 L 11.17 13.186 L 11.17 16.946 L 11.17 20.707 L 9.847 20.707 L 8.523 20.707 L 8.523 21.524 C 8.523 21.976 8.532 22.355 8.545 22.364 C 8.556 22.377 10.166 22.384 12.12 22.38 L 15.674 22.37 L 15.684 21.54 Z" fill="#FFFFFF" transform="matrix(-1, 0, 0, -1, 24.213, 35.567122)"/>
  <path d="M 20.451 13.291 C 20.957 13.419 21.342 13.642 21.696 14.009 C 21.879 14.206 22.151 14.562 22.173 14.647 C 22.178 14.672 21.314 15.254 20.788 15.58 C 20.77 15.592 20.694 15.51 20.608 15.384 C 20.354 15.011 20.084 14.849 19.673 14.822 C 19.07 14.78 18.681 15.096 18.684 15.625 C 18.684 15.778 18.706 15.87 18.769 15.996 C 18.902 16.271 19.149 16.435 19.923 16.77 C 21.348 17.383 21.958 17.788 22.337 18.362 C 22.76 19.005 22.855 20.028 22.567 20.79 C 22.252 21.616 21.468 22.18 20.365 22.366 C 20.024 22.425 19.216 22.416 18.85 22.35 C 18.05 22.207 17.292 21.813 16.824 21.296 C 16.641 21.093 16.284 20.565 16.306 20.527 C 16.315 20.514 16.397 20.464 16.489 20.41 C 16.577 20.359 16.912 20.167 17.228 19.983 L 17.8 19.652 L 17.921 19.828 C 18.088 20.084 18.454 20.435 18.675 20.552 C 19.311 20.887 20.182 20.84 20.612 20.455 C 20.795 20.287 20.871 20.113 20.871 19.857 C 20.871 19.626 20.842 19.525 20.723 19.351 C 20.568 19.131 20.252 18.944 19.355 18.555 C 18.328 18.114 17.885 17.838 17.481 17.403 C 17.247 17.15 17.026 16.745 16.934 16.407 C 16.859 16.126 16.84 15.422 16.9 15.137 C 17.112 14.145 17.86 13.453 18.941 13.247 C 19.291 13.181 20.107 13.207 20.451 13.291 Z" fill="#FFFFFF"/>
</svg>