<?xml version="1.0" encoding="utf-8"?>
<svg version="1.1" preserveAspectRatio="xMidYMid" viewBox="0 -12.5 355.273 25" xmlns="http://www.w3.org/2000/svg">
  <defs>
    <path id="path-0" style="fill: none;" d="M 4.432 29.201 C 19.108 33.579 21.276 34.172 23.436 34.464 L 24.104 34.62 C 24.779 34.737 25.526 34.809 26.176 35.037"/>
  </defs>
  <path d="M 23.103 -4.237 C 22.812 -4.337 22.51 -4.431 22.198 -4.522 C 22.249 -4.73 22.296 -4.937 22.338 -5.138 C 23.024 -8.463 22.576 -11.14 21.047 -12.021 C 19.582 -12.866 17.184 -11.985 14.762 -9.879 C 14.53 -9.677 14.296 -9.46 14.062 -9.238 C 13.907 -9.385 13.751 -9.529 13.597 -9.667 C 11.06 -11.92 8.516 -12.868 6.989 -11.985 C 5.524 -11.138 5.09 -8.62 5.708 -5.471 C 5.765 -5.166 5.836 -4.856 5.916 -4.541 C 5.554 -4.437 5.207 -4.329 4.876 -4.212 C 1.899 -3.177 0 -1.549 0 0.136 C 0 1.879 2.04 3.623 5.137 4.685 C 5.382 4.767 5.637 4.845 5.899 4.922 C 5.814 5.263 5.74 5.597 5.677 5.923 C 5.088 9.021 5.549 11.477 7.01 12.32 C 8.518 13.189 11.049 12.296 13.515 10.141 C 13.71 9.97 13.906 9.788 14.102 9.6 C 14.355 9.845 14.61 10.076 14.861 10.295 C 17.249 12.349 19.607 13.18 21.068 12.332 C 22.574 11.461 23.064 8.821 22.427 5.608 C 22.379 5.364 22.322 5.113 22.261 4.858 C 22.437 4.805 22.612 4.748 22.783 4.694 C 26.002 3.628 28.101 1.903 28.101 0.136 C 28.101 -1.555 26.139 -3.193 23.103 -4.237 L 23.103 -4.237 L 23.103 -4.237 Z" style="fill: rgb(51, 51, 51);"/>
  <path d="M 22.406 3.556 C 22.251 3.605 22.093 3.654 21.932 3.702 C 21.579 2.577 21.097 1.379 20.509 0.143 C 21.07 -1.064 21.53 -2.247 21.878 -3.365 C 22.164 -3.283 22.444 -3.194 22.712 -3.102 C 25.314 -2.207 26.9 -0.882 26.9 0.136 C 26.9 1.223 25.184 2.633 22.406 3.556 L 22.406 3.556 L 22.406 3.556 Z M 21.251 5.842 C 21.53 7.262 21.572 8.546 21.386 9.549 C 21.22 10.453 20.882 11.054 20.467 11.294 C 19.581 11.809 17.687 11.141 15.645 9.383 C 15.41 9.181 15.175 8.967 14.938 8.74 C 15.73 7.874 16.521 6.867 17.293 5.747 C 18.653 5.628 19.934 5.429 21.099 5.162 C 21.156 5.393 21.207 5.619 21.251 5.842 L 21.251 5.842 L 21.251 5.842 Z M 9.579 11.207 C 8.714 11.512 8.025 11.52 7.609 11.281 C 6.722 10.767 6.355 8.794 6.856 6.149 C 6.915 5.846 6.982 5.533 7.063 5.215 C 8.212 5.47 9.488 5.654 10.847 5.763 C 11.626 6.856 12.441 7.864 13.26 8.744 C 13.081 8.917 12.903 9.082 12.726 9.236 C 11.635 10.19 10.542 10.866 9.579 11.207 L 9.579 11.207 L 9.579 11.207 Z M 5.527 3.548 C 4.158 3.081 3.026 2.47 2.249 1.808 C 1.553 1.209 1.2 0.618 1.2 0.136 C 1.2 -0.886 2.725 -2.192 5.269 -3.081 C 5.577 -3.187 5.903 -3.288 6.238 -3.383 C 6.591 -2.239 7.049 -1.043 7.606 0.166 C 7.043 1.394 6.574 2.609 6.22 3.764 C 5.981 3.698 5.749 3.623 5.527 3.548 L 5.527 3.548 L 5.527 3.548 Z M 6.884 -5.701 C 6.358 -8.399 6.707 -10.436 7.591 -10.946 C 8.53 -11.491 10.609 -10.714 12.8 -8.77 C 12.94 -8.644 13.081 -8.513 13.222 -8.381 C 12.406 -7.502 11.598 -6.505 10.828 -5.416 C 9.507 -5.296 8.241 -5.099 7.079 -4.833 C 7.007 -5.129 6.941 -5.419 6.884 -5.701 L 6.884 -5.701 L 6.884 -5.701 Z M 19.006 -2.707 C 18.728 -3.189 18.443 -3.655 18.152 -4.113 C 19.048 -3.999 19.907 -3.847 20.715 -3.664 C 20.472 -2.889 20.17 -2.077 19.816 -1.245 C 19.559 -1.729 19.291 -2.217 19.006 -2.707 L 19.006 -2.707 L 19.006 -2.707 Z M 14.062 -7.522 C 14.616 -6.922 15.171 -6.253 15.718 -5.527 C 15.169 -5.551 14.613 -5.565 14.05 -5.565 C 13.494 -5.565 12.942 -5.552 12.396 -5.527 C 12.942 -6.246 13.501 -6.916 14.062 -7.522 L 14.062 -7.522 L 14.062 -7.522 Z M 9.089 -2.701 C 8.81 -2.217 8.546 -1.732 8.297 -1.246 C 7.945 -2.074 7.648 -2.892 7.403 -3.678 C 8.204 -3.857 9.058 -4.005 9.949 -4.115 C 9.655 -3.653 9.367 -3.181 9.089 -2.701 L 9.089 -2.701 L 9.089 -2.701 Z M 9.975 4.474 C 9.054 4.371 8.188 4.232 7.386 4.059 C 7.632 3.258 7.94 2.423 8.297 1.576 C 8.547 2.062 8.813 2.547 9.093 3.031 L 9.093 3.031 C 9.378 3.523 9.673 4.004 9.975 4.474 L 9.975 4.474 L 9.975 4.474 Z M 14.096 7.878 C 13.528 7.266 12.96 6.587 12.406 5.857 C 12.944 5.878 13.492 5.889 14.05 5.889 C 14.624 5.889 15.188 5.875 15.745 5.851 C 15.198 6.593 14.648 7.276 14.096 7.878 L 14.096 7.878 L 14.096 7.878 Z M 19.826 1.535 C 20.203 2.39 20.52 3.217 20.77 4.006 C 19.955 4.192 19.076 4.341 18.147 4.455 C 18.441 3.99 18.728 3.513 19.011 3.022 C 19.297 2.527 19.571 2.029 19.826 1.535 L 19.826 1.535 L 19.826 1.535 Z M 17.971 2.422 C 17.532 3.183 17.079 3.912 16.623 4.598 C 15.788 4.658 14.928 4.688 14.05 4.688 C 13.176 4.688 12.325 4.662 11.505 4.607 C 11.028 3.913 10.569 3.182 10.132 2.431 L 10.132 2.431 C 9.697 1.678 9.296 0.92 8.933 0.166 C 9.296 -0.589 9.695 -1.349 10.128 -2.101 L 10.128 -2.101 C 10.563 -2.852 11.019 -3.58 11.491 -4.27 C 12.326 -4.332 13.185 -4.366 14.05 -4.366 L 14.05 -4.366 C 14.92 -4.366 15.777 -4.332 16.613 -4.269 C 17.077 -3.582 17.531 -2.859 17.967 -2.106 C 18.408 -1.345 18.813 -0.59 19.18 0.149 C 18.814 0.901 18.41 1.661 17.971 2.422 L 17.971 2.422 L 17.971 2.422 Z M 20.447 -10.981 C 21.388 -10.44 21.755 -8.25 21.164 -5.38 C 21.125 -5.198 21.083 -5.011 21.036 -4.822 C 19.871 -5.091 18.606 -5.292 17.28 -5.415 C 16.507 -6.515 15.707 -7.516 14.905 -8.381 C 15.119 -8.588 15.336 -8.787 15.551 -8.973 C 17.625 -10.778 19.563 -11.492 20.447 -10.981 L 20.447 -10.981 L 20.447 -10.981 Z" fill="#FFFFFF" style=""/>
  <path d="M 14.05 -2.372 C 15.435 -2.372 16.56 -1.25 16.56 0.136 C 16.56 1.523 15.435 2.645 14.05 2.645 C 12.665 2.645 11.54 1.523 11.54 0.136 C 11.54 -1.25 12.665 -2.372 14.05 -2.372" style="fill: rgb(51, 51, 51);"/>
  <path d="M 37.085 -6.296 L 33.408 -6.296 L 33.408 -0.715 L 36.833 -0.715 C 37.804 -0.715 38.591 -0.811 39.197 -1 C 39.948 -1.219 40.463 -1.646 40.74 -2.28 C 40.893 -2.66 40.969 -3.076 40.969 -3.528 C 40.969 -4.447 40.71 -5.136 40.192 -5.596 C 39.813 -5.954 39.171 -6.173 38.266 -6.253 C 37.843 -6.282 37.449 -6.296 37.085 -6.296 Z M 39.328 0.193 L 42.666 6.989 L 41.144 6.989 L 37.894 0.379 L 33.408 0.379 L 33.408 6.989 L 31.974 6.989 L 31.974 -7.347 L 37.172 -7.347 C 39.032 -7.347 40.375 -7.044 41.199 -6.439 C 42.023 -5.834 42.436 -4.871 42.436 -3.55 C 42.436 -1.624 41.399 -0.376 39.328 0.193 Z M 45.491 1.134 L 51.007 1.134 C 50.977 -1.098 50.083 -2.215 48.326 -2.215 C 47.42 -2.215 46.745 -1.886 46.301 -1.23 C 45.848 -0.609 45.579 0.179 45.491 1.134 Z M 51.412 -1.886 C 52.031 -1.011 52.342 0.109 52.342 1.473 C 52.342 1.744 52.334 1.933 52.32 2.042 L 45.469 2.042 C 45.469 3.238 45.695 4.206 46.148 4.942 C 46.644 5.774 47.399 6.19 48.413 6.19 C 49.719 6.19 50.561 5.61 50.941 4.45 L 52.024 4.713 C 51.863 5.245 51.598 5.708 51.225 6.102 C 50.853 6.496 50.427 6.778 49.945 6.945 C 49.514 7.098 49.015 7.189 48.446 7.219 L 48.413 7.219 C 46.917 7.219 45.804 6.686 45.075 5.621 C 44.397 4.658 44.058 3.44 44.058 1.966 C 44.058 0.382 44.441 -0.883 45.207 -1.832 C 45.973 -2.78 47.027 -3.254 48.369 -3.254 C 49.733 -3.254 50.747 -2.798 51.412 -1.886 Z M 60.446 6.989 L 60.304 5.851 C 59.174 6.762 57.973 7.219 56.704 7.219 C 55.85 7.219 55.15 6.989 54.603 6.529 C 54.063 6.062 53.793 5.413 53.793 4.581 C 53.793 3.961 53.976 3.407 54.34 2.918 C 54.581 2.59 55.073 2.272 55.817 1.966 C 56.241 1.805 56.952 1.634 57.951 1.451 C 58.12 1.415 58.55 1.345 59.243 1.244 L 60.217 1.112 L 60.217 0.696 C 60.217 -0.39 60.041 -1.142 59.691 -1.558 C 59.334 -1.974 58.722 -2.182 57.853 -2.182 C 56.657 -2.182 55.719 -1.758 55.04 -0.912 C 55.04 -0.927 54.76 -1.194 54.198 -1.711 C 55.015 -2.74 56.259 -3.254 57.929 -3.254 C 60.381 -3.254 61.606 -2.043 61.606 0.379 L 61.606 6.989 L 60.446 6.989 Z M 60.217 4.833 L 60.217 2.02 L 59.243 2.196 C 58.185 2.378 57.43 2.516 56.977 2.611 C 56.402 2.772 55.938 2.991 55.587 3.268 C 55.267 3.523 55.106 3.899 55.106 4.395 C 55.106 5.643 55.726 6.266 56.966 6.266 C 58.003 6.266 59.086 5.788 60.217 4.833 Z M 65.753 -2.554 C 66.409 -3.021 67.219 -3.254 68.182 -3.254 C 68.956 -3.254 69.678 -3.043 70.349 -2.619 C 71.057 -2.146 71.549 -1.336 71.826 -0.19 L 70.666 0.127 C 70.44 -0.675 70.133 -1.266 69.747 -1.646 C 69.361 -2.025 68.857 -2.215 68.237 -2.215 C 67.238 -2.215 66.486 -1.85 65.983 -1.12 C 65.471 -0.39 65.217 0.638 65.217 1.966 C 65.217 3.257 65.443 4.272 65.895 5.008 C 66.362 5.796 67.095 6.19 68.095 6.19 C 69.386 6.19 70.258 5.427 70.71 3.903 L 71.793 4.22 C 71.567 5.249 71.079 6.022 70.327 6.54 C 69.67 6.992 68.919 7.219 68.073 7.219 C 66.708 7.219 65.654 6.751 64.91 5.818 C 64.174 4.884 63.805 3.607 63.805 1.988 C 63.805 -0.143 64.454 -1.656 65.753 -2.554 Z M 78.317 5.763 L 78.568 6.671 C 78.073 6.992 77.496 7.153 76.839 7.153 C 75.964 7.153 75.333 6.89 74.946 6.365 C 74.56 5.84 74.366 4.986 74.366 3.804 L 74.366 -2.05 L 72.889 -2.05 L 72.889 -3.046 L 74.465 -3.046 L 74.465 -6.231 L 75.778 -6.592 L 75.778 -3.046 L 77.956 -3.046 L 77.956 -2.05 L 75.778 -2.05 L 75.778 4.428 C 75.778 5.544 76.23 6.102 77.135 6.102 C 77.427 6.102 77.821 5.99 78.317 5.763 Z" style="fill: rgb(51, 51, 51); white-space: pre;"/>
  <polygon style="fill: rgb(51, 51, 51);" id="polygon9" points="273.149 -9.784 283.655 8.48 262.644 8.48"/>
  <path style="fill: rgb(51, 51, 51); stroke-width: 0.211578;" id="path11" d="M 286.989 5.411 L 294.408 5.411 L 294.408 4.149 L 288.838 4.149 L 294.316 -3.514 L 294.316 -4.616 L 287.078 -4.616 L 287.078 -3.354 L 292.466 -3.354 L 286.989 4.309 Z M 302.172 5.411 L 308.829 5.411 L 308.829 4.149 L 303.678 4.149 L 303.678 0.931 L 308.158 0.931 L 308.158 -0.332 L 303.678 -0.332 L 303.678 -3.354 L 308.829 -3.354 L 308.829 -4.616 L 302.172 -4.616 Z M 316.847 5.411 L 323.341 5.411 L 323.341 4.149 L 320.856 4.149 L 320.856 -3.354 L 323.341 -3.354 L 323.341 -4.616 L 316.847 -4.616 L 316.847 -3.354 L 319.35 -3.354 L 319.35 4.149 L 316.847 4.149 Z M 334.026 5.411 L 335.532 5.411 L 335.532 -3.354 L 339.015 -3.354 L 339.015 -4.616 L 330.579 -4.616 L 330.579 -3.354 L 334.026 -3.354 Z"/>
  <g transform="matrix(0.715599, 0, 0, 0.715599, 112.39785, -7.71061)" style="">
    <path d="M 13.71 2.275 L 8.004 2.275 L 8.004 18.79 L 5.672 18.79 L 5.672 2.275 L 0 2.275 L 0 0.325 L 13.71 0.325 L 13.71 2.275 Z M 24.464 5.591 L 17.957 20.904 C 16.808 23.634 15.172 25 13.085 25 C 12.493 25 12.005 24.934 11.623 24.838 L 11.623 22.952 C 12.11 23.114 12.562 23.179 12.945 23.179 C 14.093 23.179 14.929 22.529 15.52 21.262 L 16.635 18.758 L 11.136 5.591 L 13.642 5.591 L 17.469 15.735 C 17.505 15.864 17.609 16.19 17.748 16.742 L 17.816 16.742 C 17.852 16.547 17.957 16.222 18.095 15.767 L 22.098 5.591 L 24.464 5.591 L 24.464 5.591 Z M 28.152 16.873 L 28.083 16.873 L 28.083 24.838 L 25.821 24.838 L 25.821 5.591 L 28.083 5.591 L 28.083 7.899 L 28.152 7.899 C 29.267 6.144 30.901 5.267 33.024 5.267 C 34.834 5.267 36.261 5.851 37.27 7.022 C 38.279 8.192 38.801 9.785 38.801 11.768 C 38.801 13.979 38.209 15.735 37.062 17.068 C 35.913 18.401 34.346 19.05 32.364 19.05 C 30.589 19.116 29.162 18.368 28.152 16.873 L 28.152 16.873 Z M 28.118 11.573 L 28.118 13.426 C 28.118 14.532 28.501 15.442 29.267 16.19 C 30.031 16.937 30.972 17.328 32.154 17.328 C 33.512 17.328 34.591 16.84 35.391 15.864 C 36.156 14.889 36.539 13.524 36.539 11.768 C 36.539 10.305 36.191 9.136 35.46 8.323 C 34.729 7.477 33.755 7.088 32.503 7.088 C 31.18 7.088 30.136 7.51 29.336 8.355 C 28.501 9.2 28.118 10.273 28.118 11.573 L 28.118 11.573 Z M 52.651 12.712 L 42.699 12.712 C 42.733 14.174 43.151 15.312 43.952 16.124 C 44.752 16.937 45.866 17.328 47.293 17.328 C 48.893 17.328 50.354 16.84 51.677 15.864 L 51.677 17.848 C 50.424 18.692 48.788 19.116 46.769 19.116 C 44.787 19.116 43.22 18.53 42.071 17.328 C 40.924 16.124 40.367 14.434 40.367 12.288 C 40.367 10.24 40.993 8.55 42.247 7.282 C 43.498 5.982 45.03 5.331 46.874 5.331 C 48.719 5.331 50.146 5.884 51.155 7.022 C 52.164 8.127 52.686 9.687 52.686 11.671 L 52.651 12.712 L 52.651 12.712 Z M 50.32 10.924 C 50.32 9.687 50.006 8.745 49.38 8.063 C 48.753 7.379 47.884 7.055 46.805 7.055 C 45.726 7.055 44.822 7.412 44.09 8.127 C 43.36 8.843 42.873 9.785 42.699 10.924 L 50.32 10.924 Z M 53.765 18.141 L 53.765 16.677 C 55.192 17.523 56.618 17.945 58.08 17.945 C 59.611 17.945 60.794 17.653 61.595 17.035 C 62.396 16.417 62.778 15.604 62.778 14.532 C 62.778 13.589 62.498 12.841 61.977 12.256 C 61.455 11.704 60.273 10.924 58.497 9.947 C 56.479 8.843 55.227 7.932 54.705 7.217 C 54.183 6.469 53.904 5.624 53.904 4.682 C 53.904 3.381 54.462 2.275 55.539 1.366 C 56.618 0.455 58.08 0 59.89 0 C 61.073 0 62.255 0.195 63.404 0.553 L 63.404 1.886 C 62.255 1.398 61.003 1.138 59.681 1.138 C 58.324 1.138 57.279 1.463 56.479 2.081 C 55.679 2.73 55.297 3.511 55.297 4.487 C 55.297 5.429 55.575 6.177 56.097 6.73 C 56.618 7.282 57.801 8.063 59.576 9.005 C 61.42 9.98 62.639 10.858 63.265 11.606 C 63.891 12.354 64.169 13.232 64.169 14.239 C 64.169 15.669 63.647 16.808 62.603 17.717 C 61.56 18.628 60.063 19.05 58.149 19.05 C 57.453 19.05 56.688 18.953 55.784 18.758 C 54.878 18.563 54.216 18.401 53.765 18.141 L 53.765 18.141 Z M 75.932 18.205 C 74.889 18.79 73.635 19.116 72.173 19.116 C 70.259 19.116 68.694 18.498 67.51 17.262 C 66.327 16.027 65.736 14.434 65.736 12.419 C 65.736 10.338 66.397 8.615 67.72 7.282 C 69.042 5.949 70.747 5.267 72.835 5.267 C 73.914 5.267 74.957 5.462 75.967 5.884 L 75.967 7.217 C 74.957 6.632 73.844 6.339 72.661 6.339 C 70.991 6.339 69.667 6.892 68.623 7.997 C 67.58 9.103 67.093 10.566 67.093 12.321 C 67.093 14.045 67.58 15.409 68.52 16.45 C 69.459 17.49 70.712 18.01 72.243 18.01 C 73.669 18.01 74.889 17.653 75.932 16.97 L 75.932 18.205 L 75.932 18.205 Z M 84.353 6.826 C 83.936 6.535 83.449 6.404 82.857 6.404 C 81.744 6.404 80.804 6.957 80.073 8.03 C 79.307 9.103 78.96 10.631 78.96 12.614 L 78.96 18.823 L 77.706 18.823 L 77.706 5.591 L 78.96 5.591 L 78.96 8.518 L 79.029 8.518 C 79.342 7.51 79.865 6.73 80.56 6.177 C 81.256 5.624 82.057 5.331 82.996 5.331 C 83.517 5.331 84.004 5.397 84.388 5.559 L 84.388 6.826 L 84.353 6.826 L 84.353 6.826 Z M 86.371 2.275 C 86.093 2.275 85.85 2.179 85.641 1.983 C 85.431 1.788 85.328 1.561 85.328 1.268 C 85.328 0.975 85.431 0.748 85.641 0.585 C 85.85 0.422 86.093 0.325 86.371 0.325 C 86.651 0.325 86.894 0.422 87.137 0.585 C 87.345 0.748 87.45 0.975 87.45 1.268 C 87.45 1.528 87.345 1.788 87.137 1.983 C 86.894 2.179 86.651 2.275 86.371 2.275 Z M 85.745 18.79 L 85.745 5.591 L 86.998 5.591 L 86.998 18.79 L 85.745 18.79 Z M 91.348 16.45 L 91.278 16.45 L 91.278 24.869 L 90.026 24.869 L 90.026 5.591 L 91.278 5.591 L 91.278 8.323 L 91.348 8.323 C 91.87 7.348 92.566 6.599 93.506 6.079 C 94.446 5.559 95.489 5.299 96.602 5.299 C 98.411 5.299 99.804 5.884 100.814 7.022 C 101.823 8.192 102.31 9.753 102.31 11.735 C 102.31 13.947 101.718 15.735 100.569 17.1 C 99.422 18.465 97.89 19.148 96.012 19.148 C 93.923 19.116 92.357 18.238 91.348 16.45 Z M 91.278 11.541 L 91.278 13.199 C 91.278 14.532 91.73 15.669 92.6 16.613 C 93.506 17.555 94.654 18.043 96.115 18.043 C 97.541 18.043 98.725 17.457 99.631 16.32 C 100.535 15.149 100.987 13.654 100.987 11.768 C 100.987 10.111 100.569 8.81 99.735 7.835 C 98.899 6.859 97.821 6.372 96.428 6.372 C 94.792 6.372 93.506 6.892 92.6 7.932 C 91.697 8.972 91.278 10.143 91.278 11.541 Z M 110 18.596 C 109.34 18.888 108.712 19.018 108.156 19.018 C 106.068 19.018 105.024 17.848 105.024 15.507 L 105.024 6.697 L 102.484 6.697 L 102.484 5.624 L 105.024 5.624 L 105.024 2.179 L 105.651 1.983 L 106.277 1.788 L 106.277 5.624 L 110 5.624 L 110 6.697 L 106.277 6.697 L 106.277 15.409 C 106.277 16.32 106.416 16.97 106.729 17.393 C 107.042 17.815 107.565 18.01 108.295 18.01 C 108.817 18.01 109.375 17.848 110 17.523 L 110 18.596 L 110 18.596 Z" style="fill: rgb(51, 51, 51);"/>
  </g>
  <polygon points="90.168 0.217 90.168 9.733 99.684 9.733 109.199 9.733 109.199 0.217 109.199 -9.298 99.684 -9.298 90.168 -9.298" style="fill: rgb(51, 51, 51);"/>
  <path d="M 102.107 7.1 L 102.112 6.466 L 101.104 6.466 L 100.097 6.466 L 100.097 3.603 L 100.097 0.74 L 99.384 0.74 L 98.671 0.74 L 98.671 3.603 L 98.671 6.466 L 97.664 6.466 L 96.656 6.466 L 96.656 7.088 C 96.656 7.432 96.663 7.72 96.673 7.727 C 96.681 7.737 97.907 7.742 99.394 7.739 L 102.1 7.732 L 102.107 7.1 Z" fill="#FFFFFF" transform="matrix(-1, 0, 0, -1, 198.767998, 8.479865)"/>
  <path d="M 105.736 0.82 C 106.121 0.917 106.414 1.087 106.684 1.366 C 106.823 1.516 107.03 1.787 107.047 1.852 C 107.051 1.871 106.393 2.314 105.993 2.562 C 105.979 2.571 105.921 2.509 105.856 2.413 C 105.662 2.129 105.457 2.006 105.144 1.985 C 104.685 1.953 104.389 2.194 104.391 2.596 C 104.391 2.713 104.408 2.783 104.456 2.879 C 104.557 3.088 104.745 3.213 105.334 3.468 C 106.419 3.935 106.883 4.243 107.172 4.68 C 107.494 5.169 107.566 5.948 107.347 6.528 C 107.107 7.157 106.51 7.586 105.671 7.728 C 105.411 7.773 104.796 7.766 104.517 7.716 C 103.908 7.607 103.331 7.307 102.975 6.913 C 102.836 6.759 102.564 6.357 102.581 6.328 C 102.588 6.318 102.65 6.28 102.72 6.239 C 102.787 6.2 103.042 6.054 103.283 5.914 L 103.718 5.662 L 103.81 5.796 C 103.937 5.991 104.216 6.258 104.384 6.347 C 104.868 6.602 105.531 6.566 105.859 6.273 C 105.998 6.145 106.056 6.013 106.056 5.818 C 106.056 5.642 106.034 5.565 105.943 5.433 C 105.825 5.265 105.585 5.123 104.902 4.827 C 104.12 4.491 103.783 4.281 103.475 3.95 C 103.297 3.757 103.129 3.449 103.059 3.192 C 103.002 2.978 102.987 2.442 103.033 2.225 C 103.194 1.47 103.764 0.943 104.587 0.786 C 104.853 0.736 105.474 0.756 105.736 0.82 Z" fill="#FFFFFF"/>
  <g transform="matrix(0.08897, 0, 0, 0.080937, 203.337799, -12.079866)" style="">
    <path d="M120.81043,80.5613102 L217.378325,80.5613102 L217.378325,88.2366589 L129.662487,88.2366589 L129.662487,146.003758 L212.147564,146.003758 L212.147564,153.679106 L129.662487,153.679106 L129.662487,217.101725 L218.384241,217.101725 L218.384241,224.777073 L120.81043,224.777073 L120.81043,80.5613102 Z M226.0292,80.5613102 L236.289538,80.5613102 L281.756922,143.983929 L328.230222,80.5613102 L391.441486,0 L287.591232,150.649363 L341.105941,224.777073 L330.443237,224.777073 L281.756922,157.314798 L232.869425,224.777073 L222.407904,224.777073 L276.324978,150.649363 L226.0292,80.5613102 Z M344.928421,88.2366588 L344.928421,80.5613102 L454.975585,80.5613102 L454.975585,88.2366589 L404.27744,88.2366589 L404.27744,224.777073 L395.425382,224.777073 L395.425382,88.2366589 L344.928421,88.2366588 Z M1.42108547e-14,80.5613102 L11.0650714,80.5613102 L163.64593,308.884007 L100.591558,224.777073 L9.25442331,91.4683847 L8.85205708,224.777073 L1.42108547e-14,224.777073 L1.42108547e-14,80.5613102 Z M454.083705,214.785469 C452.275167,214.785469 450.918762,213.38418 450.918762,211.573285 C450.918762,209.762388 452.275167,208.361099 454.083705,208.361099 C455.913774,208.361099 457.248648,209.762388 457.248648,211.573285 C457.248648,213.38418 455.913774,214.785469 454.083705,214.785469 Z M462.781915,206.334618 L467.518563,206.334618 C467.583153,208.900055 469.456284,210.624719 472.212151,210.624719 C475.290972,210.624719 477.03492,208.770705 477.03492,205.29982 L477.03492,183.310363 L481.85769,183.310363 L481.85769,205.321379 C481.85769,211.573285 478.240613,215.173518 472.255212,215.173518 C466.635824,215.173518 462.781915,211.681076 462.781915,206.334618 Z M488.166045,206.054362 L492.945754,206.054362 C493.354828,209.007848 496.239878,210.883419 500.395211,210.883419 C504.270652,210.883419 507.11264,208.878498 507.11264,206.119036 C507.11264,203.747625 505.304102,202.324777 501.191828,201.354653 L497.187209,200.384531 C491.56782,199.069474 489.005723,196.353129 489.005723,191.782772 C489.005723,186.24229 493.527071,182.555823 500.30909,182.555823 C506.617445,182.555823 511.224912,186.24229 511.504805,191.480955 L506.811217,191.480955 C506.359083,188.613703 503.861576,186.824365 500.244499,186.824365 C496.43365,186.824365 493.893085,188.656819 493.893085,191.459398 C493.893085,193.679901 495.52938,194.95184 499.577063,195.900406 L503.000368,196.741178 C509.373314,198.228702 512,200.815695 512,205.493846 C512,211.443935 507.392533,215.173518 500.029197,215.173518 C493.139526,215.173518 488.51053,211.6164 488.166045,206.054362 Z" fill-rule="nonzero" style="fill: rgb(51, 51, 51); stroke-width: 185.329px;"/>
  </g>
  <g transform="matrix(0.086666, 0, 0, 0.086666, 88.93235, 74.999992)">
    <path d="M127.999999,288.463771 C124.024844,288.463771 120.314699,287.403728 116.869564,285.548656 L81.6231884,264.612838 C76.32298,261.697724 78.9730854,260.637682 80.5631458,260.107661 C87.7184259,257.72257 89.0434775,257.192547 96.4637688,252.952381 C97.2587979,252.422361 98.3188405,252.687372 99.1138718,253.217392 L126.144927,269.383024 C127.20497,269.913045 128.530021,269.913045 129.325053,269.383024 L235.064182,208.165634 C236.124225,207.635611 236.654245,206.575571 236.654245,205.250519 L236.654245,83.0807467 C236.654245,81.7556929 236.124225,80.6956526 235.064182,80.1656324 L129.325053,19.2132506 C128.26501,18.6832305 126.939959,18.6832305 126.144927,19.2132506 L20.4057954,80.1656324 C19.3457551,80.6956526 18.8157349,82.0207041 18.8157349,83.0807467 L18.8157349,205.250519 C18.8157349,206.31056 19.3457551,207.635611 20.4057954,208.165634 L49.2919247,224.861286 C64.9275364,232.811595 74.7329196,223.536234 74.7329196,214.260871 L74.7329196,93.681159 C74.7329196,92.0910985 76.0579711,90.5010358 77.9130428,90.5010358 L91.4285716,90.5010358 C93.0186343,90.5010358 94.6086948,91.8260873 94.6086948,93.681159 L94.6086948,214.260871 C94.6086948,235.196689 83.2132512,247.387164 63.3374737,247.387164 C57.2422362,247.387164 52.4720502,247.387164 38.9565214,240.761906 L11.1304347,224.861286 C4.24016581,220.886129 5.68434189e-14,213.46584 5.68434189e-14,205.515528 L5.68434189e-14,83.3457557 C5.68434189e-14,75.3954465 4.24016581,67.9751552 11.1304347,64.0000006 L116.869564,2.78260752 C123.494824,-0.927535841 132.505176,-0.927535841 139.130436,2.78260752 L244.869565,64.0000006 C251.759834,67.9751552 256,75.3954465 256,83.3457557 L256,205.515528 C256,213.46584 251.759834,220.886129 244.869565,224.861286 L139.130436,286.078676 C135.685299,287.668739 131.710145,288.463771 127.999999,288.463771 L127.999999,288.463771 Z M160.596274,204.455488 C114.219461,204.455488 104.679089,183.254659 104.679089,165.233955 C104.679089,163.643893 106.004141,162.053832 107.859212,162.053832 L121.639752,162.053832 C123.229813,162.053832 124.554864,163.113872 124.554864,164.703935 C126.674947,178.749484 132.770187,185.639753 160.861283,185.639753 C183.122154,185.639753 192.662526,180.604556 192.662526,168.67909 C192.662526,161.788821 190.012423,156.753624 155.296065,153.308489 C126.409938,150.393375 108.389235,144.033126 108.389235,120.977226 C108.389235,99.5113875 126.409938,86.7908901 156.621119,86.7908901 C190.542443,86.7908901 207.238095,98.4513472 209.358178,123.89234 C209.358178,124.687371 209.093167,125.482403 208.563147,126.277434 C208.033127,126.807454 207.238095,127.337474 206.443064,127.337474 L192.662526,127.337474 C191.337475,127.337474 190.012423,126.277434 189.747412,124.952382 C186.567289,110.376813 178.351966,105.606625 156.621119,105.606625 C132.240165,105.606625 129.325053,114.086957 129.325053,120.447205 C129.325053,128.132506 132.770187,130.5176 165.631471,134.757766 C198.227744,138.997931 213.598344,145.093169 213.598344,167.884058 C213.333333,191.20497 194.252589,204.455488 160.596274,204.455488 L160.596274,204.455488 Z" style="fill: rgb(51, 51, 51);"/>
  </g>
  <path d="M 79.944 83.102 C 79.653 83.002 79.35 82.908 79.038 82.817 C 79.089 82.609 79.136 82.402 79.179 82.2 C 79.864 78.876 79.416 76.199 77.888 75.318 C 76.421 74.473 74.024 75.354 71.602 77.46 C 71.369 77.662 71.136 77.879 70.902 78.102 C 70.747 77.954 70.591 77.811 70.438 77.672 C 67.899 75.419 65.357 74.47 63.829 75.354 C 62.364 76.201 61.93 78.718 62.548 81.868 C 62.606 82.173 62.676 82.483 62.756 82.798 C 62.394 82.902 62.047 83.01 61.716 83.128 C 58.739 84.163 56.84 85.79 56.84 87.475 C 56.84 89.218 58.879 90.962 61.977 92.024 C 62.222 92.106 62.477 92.185 62.738 92.262 C 62.653 92.602 62.58 92.936 62.517 93.262 C 61.928 96.359 62.389 98.816 63.85 99.66 C 65.358 100.528 67.889 99.634 70.355 97.48 C 70.55 97.309 70.746 97.128 70.942 96.94 C 71.195 97.184 71.451 97.415 71.701 97.635 C 74.089 99.689 76.448 100.519 77.908 99.671 C 79.414 98.801 79.904 96.16 79.267 92.947 C 79.219 92.703 79.163 92.452 79.1 92.196 C 79.278 92.144 79.452 92.088 79.623 92.033 C 82.843 90.967 84.941 89.242 84.941 87.475 C 84.941 85.784 82.979 84.146 79.944 83.102 L 79.944 83.102 L 79.944 83.102 Z" style="fill: rgb(51, 51, 51);"/>
  <path d="M 79.216 90.875 C 79.062 90.924 78.904 90.973 78.744 91.02 C 78.39 89.896 77.908 88.701 77.323 87.466 C 77.882 86.261 78.342 85.08 78.689 83.963 C 78.976 84.045 79.254 84.134 79.522 84.226 C 82.119 85.12 83.703 86.443 83.703 87.459 C 83.703 88.544 81.991 89.953 79.216 90.875 L 79.216 90.875 L 79.216 90.875 Z M 78.063 93.157 C 78.342 94.575 78.384 95.858 78.198 96.858 C 78.032 97.761 77.694 98.362 77.28 98.601 C 76.394 99.115 74.504 98.449 72.465 96.693 C 72.23 96.492 71.995 96.278 71.759 96.051 C 72.549 95.187 73.339 94.18 74.109 93.063 C 75.469 92.944 76.748 92.746 77.911 92.479 C 77.967 92.708 78.019 92.934 78.063 93.157 L 78.063 93.157 L 78.063 93.157 Z M 66.407 98.515 C 65.544 98.819 64.855 98.827 64.44 98.589 C 63.553 98.076 63.188 96.106 63.689 93.464 C 63.747 93.161 63.814 92.848 63.895 92.531 C 65.043 92.786 66.316 92.969 67.674 93.078 C 68.452 94.17 69.265 95.176 70.083 96.055 C 69.905 96.228 69.728 96.394 69.55 96.546 C 68.461 97.5 67.37 98.175 66.407 98.515 L 66.407 98.515 L 66.407 98.515 Z M 62.361 90.867 C 60.993 90.4 59.862 89.79 59.088 89.128 C 58.393 88.531 58.041 87.941 58.041 87.459 C 58.041 86.439 59.563 85.135 62.104 84.247 C 62.411 84.142 62.735 84.04 63.071 83.946 C 63.423 85.088 63.881 86.281 64.437 87.489 C 63.875 88.715 63.407 89.929 63.052 91.082 C 62.815 91.015 62.582 90.942 62.361 90.867 L 62.361 90.867 L 62.361 90.867 Z M 63.717 81.629 C 63.191 78.936 63.539 76.902 64.423 76.393 C 65.359 75.848 67.436 76.625 69.623 78.565 C 69.763 78.692 69.905 78.822 70.046 78.954 C 69.23 79.831 68.424 80.827 67.654 81.915 C 66.336 82.034 65.072 82.232 63.911 82.497 C 63.838 82.201 63.774 81.911 63.717 81.629 L 63.717 81.629 L 63.717 81.629 Z M 75.821 84.62 C 75.543 84.14 75.258 83.673 74.969 83.216 C 75.864 83.33 76.721 83.481 77.527 83.663 C 77.284 84.439 76.983 85.249 76.63 86.08 C 76.374 85.597 76.104 85.11 75.821 84.62 L 75.821 84.62 L 75.821 84.62 Z M 70.884 79.812 C 71.437 80.411 71.992 81.08 72.537 81.803 C 71.99 81.78 71.434 81.766 70.872 81.766 C 70.317 81.766 69.765 81.778 69.22 81.803 C 69.765 81.086 70.324 80.416 70.884 79.812 L 70.884 79.812 L 70.884 79.812 Z M 65.918 84.627 C 65.64 85.11 65.376 85.594 65.127 86.079 C 64.776 85.252 64.48 84.436 64.233 83.651 C 65.034 83.472 65.887 83.324 66.777 83.214 C 66.484 83.675 66.195 84.147 65.918 84.627 L 65.918 84.627 L 65.918 84.627 Z M 66.801 91.791 C 65.884 91.689 65.019 91.55 64.218 91.376 C 64.463 90.577 64.77 89.744 65.128 88.898 C 65.377 89.383 65.642 89.867 65.923 90.35 L 65.923 90.35 C 66.205 90.842 66.5 91.321 66.801 91.791 L 66.801 91.791 L 66.801 91.791 Z M 70.918 95.191 C 70.35 94.579 69.785 93.901 69.23 93.172 C 69.767 93.193 70.315 93.204 70.872 93.204 C 71.445 93.204 72.009 93.19 72.564 93.165 C 72.018 93.907 71.469 94.589 70.918 95.191 L 70.918 95.191 L 70.918 95.191 Z M 76.639 88.857 C 77.016 89.71 77.333 90.536 77.582 91.325 C 76.769 91.51 75.891 91.659 74.964 91.772 C 75.256 91.307 75.543 90.832 75.825 90.341 C 76.111 89.847 76.384 89.349 76.639 88.857 L 76.639 88.857 L 76.639 88.857 Z M 74.787 89.743 C 74.35 90.502 73.897 91.23 73.441 91.916 C 72.608 91.974 71.748 92.005 70.872 92.005 C 69.999 92.005 69.149 91.978 68.33 91.924 C 67.855 91.231 67.396 90.501 66.96 89.75 L 66.96 89.75 C 66.525 89 66.124 88.242 65.762 87.489 C 66.124 86.735 66.523 85.976 66.956 85.226 L 66.956 85.226 C 67.389 84.475 67.845 83.749 68.317 83.06 C 69.15 82.998 70.008 82.964 70.872 82.964 L 70.872 82.964 C 71.741 82.964 72.597 82.998 73.431 83.061 C 73.895 83.746 74.349 84.469 74.783 85.221 C 75.224 85.98 75.628 86.734 75.993 87.473 C 75.629 88.223 75.226 88.983 74.787 89.743 L 74.787 89.743 L 74.787 89.743 Z M 77.26 76.356 C 78.199 76.898 78.566 79.086 77.976 81.951 C 77.936 82.133 77.895 82.32 77.849 82.507 C 76.685 82.24 75.422 82.039 74.098 81.916 C 73.325 80.817 72.526 79.818 71.727 78.954 C 71.939 78.748 72.156 78.549 72.37 78.363 C 74.442 76.56 76.378 75.847 77.26 76.356 L 77.26 76.356 L 77.26 76.356 Z" fill="#FFFFFF" style=""/>
  <path d="M 70.872 84.954 C 72.256 84.954 73.379 86.075 73.379 87.459 C 73.379 88.844 72.256 89.965 70.872 89.965 C 69.489 89.965 68.367 88.844 68.367 87.459 C 68.367 86.075 69.489 84.954 70.872 84.954" style="fill: rgb(51, 51, 51);"/>
  <polygon points="117.021 87.499 117.021 100 129.522 100 142.021 100 142.021 87.499 142.021 75 129.522 75 117.021 75" style="fill: rgb(51, 51, 51);"/>
  <path d="M 132.705 96.541 L 132.711 95.708 L 131.387 95.708 L 130.064 95.708 L 130.064 91.947 L 130.064 88.186 L 129.128 88.186 L 128.191 88.186 L 128.191 91.947 L 128.191 95.708 L 126.868 95.708 L 125.544 95.708 L 125.544 96.525 C 125.544 96.977 125.553 97.356 125.566 97.365 C 125.577 97.378 127.187 97.385 129.141 97.381 L 132.695 97.371 L 132.705 96.541 Z" fill="#FFFFFF" transform="matrix(-1, 0, 0, -1, 258.254997, 185.568115)"/>
  <path d="M 137.472 88.291 C 137.978 88.419 138.363 88.642 138.717 89.009 C 138.9 89.206 139.172 89.562 139.194 89.647 C 139.199 89.672 138.335 90.254 137.809 90.58 C 137.791 90.592 137.715 90.51 137.629 90.384 C 137.375 90.011 137.105 89.849 136.694 89.822 C 136.091 89.78 135.702 90.096 135.705 90.625 C 135.705 90.778 135.727 90.87 135.79 90.996 C 135.923 91.271 136.17 91.435 136.944 91.77 C 138.369 92.383 138.979 92.788 139.358 93.362 C 139.781 94.005 139.876 95.028 139.588 95.79 C 139.273 96.616 138.489 97.18 137.386 97.366 C 137.045 97.425 136.237 97.416 135.871 97.35 C 135.071 97.207 134.313 96.813 133.845 96.296 C 133.662 96.093 133.305 95.565 133.327 95.527 C 133.336 95.514 133.418 95.464 133.51 95.41 C 133.598 95.359 133.933 95.167 134.249 94.983 L 134.821 94.652 L 134.942 94.828 C 135.109 95.084 135.475 95.435 135.696 95.552 C 136.332 95.887 137.203 95.84 137.633 95.455 C 137.816 95.287 137.892 95.113 137.892 94.857 C 137.892 94.626 137.863 94.525 137.744 94.351 C 137.589 94.131 137.273 93.944 136.376 93.555 C 135.349 93.114 134.906 92.838 134.502 92.403 C 134.268 92.15 134.047 91.745 133.955 91.407 C 133.88 91.126 133.861 90.422 133.921 90.137 C 134.133 89.145 134.881 88.453 135.962 88.247 C 136.312 88.181 137.128 88.207 137.472 88.291 Z" fill="#FFFFFF"/>
</svg>