<?xml version="1.0" encoding="utf-8"?>
<svg version="1.1" preserveAspectRatio="xMidYMid" viewBox="0 -12.5 500 30" xmlns="http://www.w3.org/2000/svg" xmlns:bx="https://boxy-svg.com">
  <defs>
    <path id="path-0" style="fill: none;" d="M 4.432 29.201 C 19.108 33.579 21.276 34.172 23.436 34.464 L 24.104 34.62 C 24.779 34.737 25.526 34.809 26.176 35.037"/>
    <bx:guide x="280.627" y="8.554" angle="90"/>
  </defs>
  <path d="M 23.103 -1.405 C 22.812 -1.505 22.51 -1.599 22.198 -1.69 C 22.249 -1.898 22.296 -2.105 22.338 -2.306 C 23.024 -5.631 22.576 -8.308 21.047 -9.189 C 19.582 -10.034 17.184 -9.153 14.762 -7.047 C 14.53 -6.845 14.296 -6.628 14.062 -6.406 C 13.907 -6.553 13.751 -6.697 13.597 -6.835 C 11.06 -9.088 8.516 -10.036 6.989 -9.153 C 5.524 -8.306 5.09 -5.788 5.708 -2.639 C 5.765 -2.334 5.836 -2.024 5.916 -1.709 C 5.554 -1.605 5.207 -1.497 4.876 -1.38 C 1.899 -0.345 0 1.283 0 2.968 C 0 4.711 2.04 6.455 5.137 7.517 C 5.382 7.599 5.637 7.677 5.899 7.754 C 5.814 8.095 5.74 8.429 5.677 8.755 C 5.088 11.853 5.549 14.309 7.01 15.152 C 8.518 16.021 11.049 15.128 13.515 12.973 C 13.71 12.802 13.906 12.62 14.102 12.432 C 14.355 12.677 14.61 12.908 14.861 13.127 C 17.249 15.181 19.607 16.012 21.068 15.164 C 22.574 14.293 23.064 11.653 22.427 8.44 C 22.379 8.196 22.322 7.945 22.261 7.69 C 22.437 7.637 22.612 7.58 22.783 7.526 C 26.002 6.46 28.101 4.735 28.101 2.968 C 28.101 1.277 26.139 -0.361 23.103 -1.405 L 23.103 -1.405 L 23.103 -1.405 Z" style="fill: rgb(51, 51, 51);"/>
  <path d="M 22.406 6.388 C 22.251 6.437 22.093 6.486 21.932 6.534 C 21.579 5.409 21.097 4.211 20.509 2.975 C 21.07 1.768 21.53 0.585 21.878 -0.533 C 22.164 -0.451 22.444 -0.362 22.712 -0.27 C 25.314 0.625 26.9 1.95 26.9 2.968 C 26.9 4.055 25.184 5.465 22.406 6.388 L 22.406 6.388 L 22.406 6.388 Z M 21.251 8.674 C 21.53 10.094 21.572 11.378 21.386 12.381 C 21.22 13.285 20.882 13.886 20.467 14.126 C 19.581 14.641 17.687 13.973 15.645 12.215 C 15.41 12.013 15.175 11.799 14.938 11.572 C 15.73 10.706 16.521 9.699 17.293 8.579 C 18.653 8.46 19.934 8.261 21.099 7.994 C 21.156 8.225 21.207 8.451 21.251 8.674 L 21.251 8.674 L 21.251 8.674 Z M 9.579 14.039 C 8.714 14.344 8.025 14.352 7.609 14.113 C 6.722 13.599 6.355 11.626 6.856 8.981 C 6.915 8.678 6.982 8.365 7.063 8.047 C 8.212 8.302 9.488 8.486 10.847 8.595 C 11.626 9.688 12.441 10.696 13.26 11.576 C 13.081 11.749 12.903 11.914 12.726 12.068 C 11.635 13.022 10.542 13.698 9.579 14.039 L 9.579 14.039 L 9.579 14.039 Z M 5.527 6.38 C 4.158 5.913 3.026 5.302 2.249 4.64 C 1.553 4.041 1.2 3.45 1.2 2.968 C 1.2 1.946 2.725 0.64 5.269 -0.249 C 5.577 -0.355 5.903 -0.456 6.238 -0.551 C 6.591 0.593 7.049 1.789 7.606 2.998 C 7.043 4.226 6.574 5.441 6.22 6.596 C 5.981 6.53 5.749 6.455 5.527 6.38 L 5.527 6.38 L 5.527 6.38 Z M 6.884 -2.869 C 6.358 -5.567 6.707 -7.604 7.591 -8.114 C 8.53 -8.659 10.609 -7.882 12.8 -5.938 C 12.94 -5.812 13.081 -5.681 13.222 -5.549 C 12.406 -4.67 11.598 -3.673 10.828 -2.584 C 9.507 -2.464 8.241 -2.267 7.079 -2.001 C 7.007 -2.297 6.941 -2.587 6.884 -2.869 L 6.884 -2.869 L 6.884 -2.869 Z M 19.006 0.125 C 18.728 -0.357 18.443 -0.823 18.152 -1.281 C 19.048 -1.167 19.907 -1.015 20.715 -0.832 C 20.472 -0.057 20.17 0.755 19.816 1.587 C 19.559 1.103 19.291 0.615 19.006 0.125 L 19.006 0.125 L 19.006 0.125 Z M 14.062 -4.69 C 14.616 -4.09 15.171 -3.421 15.718 -2.695 C 15.169 -2.719 14.613 -2.733 14.05 -2.733 C 13.494 -2.733 12.942 -2.72 12.396 -2.695 C 12.942 -3.414 13.501 -4.084 14.062 -4.69 L 14.062 -4.69 L 14.062 -4.69 Z M 9.089 0.131 C 8.81 0.615 8.546 1.1 8.297 1.586 C 7.945 0.758 7.648 -0.06 7.403 -0.846 C 8.204 -1.025 9.058 -1.173 9.949 -1.283 C 9.655 -0.821 9.367 -0.349 9.089 0.131 L 9.089 0.131 L 9.089 0.131 Z M 9.975 7.306 C 9.054 7.203 8.188 7.064 7.386 6.891 C 7.632 6.09 7.94 5.255 8.297 4.408 C 8.547 4.894 8.813 5.379 9.093 5.863 L 9.093 5.863 C 9.378 6.355 9.673 6.836 9.975 7.306 L 9.975 7.306 L 9.975 7.306 Z M 14.096 10.71 C 13.528 10.098 12.96 9.419 12.406 8.689 C 12.944 8.71 13.492 8.721 14.05 8.721 C 14.624 8.721 15.188 8.707 15.745 8.683 C 15.198 9.425 14.648 10.108 14.096 10.71 L 14.096 10.71 L 14.096 10.71 Z M 19.826 4.367 C 20.203 5.222 20.52 6.049 20.77 6.838 C 19.955 7.024 19.076 7.173 18.147 7.287 C 18.441 6.822 18.728 6.345 19.011 5.854 C 19.297 5.359 19.571 4.861 19.826 4.367 L 19.826 4.367 L 19.826 4.367 Z M 17.971 5.254 C 17.532 6.015 17.079 6.744 16.623 7.43 C 15.788 7.49 14.928 7.52 14.05 7.52 C 13.176 7.52 12.325 7.494 11.505 7.439 C 11.028 6.745 10.569 6.014 10.132 5.263 L 10.132 5.263 C 9.697 4.51 9.296 3.752 8.933 2.998 C 9.296 2.243 9.695 1.483 10.128 0.731 L 10.128 0.731 C 10.563 -0.02 11.019 -0.748 11.491 -1.438 C 12.326 -1.5 13.185 -1.534 14.05 -1.534 L 14.05 -1.534 C 14.92 -1.534 15.777 -1.5 16.613 -1.437 C 17.077 -0.75 17.531 -0.027 17.967 0.726 C 18.408 1.487 18.813 2.242 19.18 2.981 C 18.814 3.733 18.41 4.493 17.971 5.254 L 17.971 5.254 L 17.971 5.254 Z M 20.447 -8.149 C 21.388 -7.608 21.755 -5.418 21.164 -2.548 C 21.125 -2.366 21.083 -2.179 21.036 -1.99 C 19.871 -2.259 18.606 -2.46 17.28 -2.583 C 16.507 -3.683 15.707 -4.684 14.905 -5.549 C 15.119 -5.756 15.336 -5.955 15.551 -6.141 C 17.625 -7.946 19.563 -8.66 20.447 -8.149 L 20.447 -8.149 L 20.447 -8.149 Z" fill="#FFFFFF" style=""/>
  <path d="M 14.05 0.46 C 15.435 0.46 16.56 1.582 16.56 2.968 C 16.56 4.355 15.435 5.477 14.05 5.477 C 12.665 5.477 11.54 4.355 11.54 2.968 C 11.54 1.582 12.665 0.46 14.05 0.46" style="fill: rgb(51, 51, 51);"/>
  <path d="M 36.258 -3.827 L 32.581 -3.827 L 32.581 1.754 L 36.006 1.754 C 36.977 1.754 37.764 1.658 38.37 1.469 C 39.121 1.25 39.636 0.823 39.913 0.189 C 40.066 -0.191 40.142 -0.607 40.142 -1.059 C 40.142 -1.978 39.883 -2.667 39.365 -3.127 C 38.986 -3.485 38.344 -3.704 37.439 -3.784 C 37.016 -3.813 36.622 -3.827 36.258 -3.827 Z M 38.501 2.662 L 41.839 9.458 L 40.317 9.458 L 37.067 2.848 L 32.581 2.848 L 32.581 9.458 L 31.147 9.458 L 31.147 -4.878 L 36.345 -4.878 C 38.205 -4.878 39.548 -4.575 40.372 -3.97 C 41.196 -3.365 41.609 -2.402 41.609 -1.081 C 41.609 0.845 40.572 2.093 38.501 2.662 Z M 44.664 3.603 L 50.18 3.603 C 50.15 1.371 49.256 0.254 47.499 0.254 C 46.593 0.254 45.918 0.583 45.474 1.239 C 45.021 1.86 44.752 2.648 44.664 3.603 Z M 50.585 0.583 C 51.204 1.458 51.515 2.578 51.515 3.942 C 51.515 4.213 51.507 4.402 51.493 4.511 L 44.642 4.511 C 44.642 5.707 44.868 6.675 45.321 7.411 C 45.817 8.243 46.572 8.659 47.586 8.659 C 48.892 8.659 49.734 8.079 50.114 6.919 L 51.197 7.182 C 51.036 7.714 50.771 8.177 50.398 8.571 C 50.026 8.965 49.6 9.247 49.118 9.414 C 48.687 9.567 48.188 9.658 47.619 9.688 L 47.586 9.688 C 46.09 9.688 44.977 9.155 44.248 8.09 C 43.57 7.127 43.231 5.909 43.231 4.435 C 43.231 2.851 43.614 1.586 44.38 0.637 C 45.146 -0.311 46.2 -0.785 47.542 -0.785 C 48.906 -0.785 49.92 -0.329 50.585 0.583 Z M 59.619 9.458 L 59.477 8.32 C 58.347 9.231 57.146 9.688 55.877 9.688 C 55.023 9.688 54.323 9.458 53.776 8.998 C 53.236 8.531 52.966 7.882 52.966 7.05 C 52.966 6.43 53.149 5.876 53.513 5.387 C 53.754 5.059 54.246 4.741 54.99 4.435 C 55.414 4.274 56.125 4.103 57.124 3.92 C 57.293 3.884 57.723 3.814 58.416 3.713 L 59.39 3.581 L 59.39 3.165 C 59.39 2.079 59.214 1.327 58.864 0.911 C 58.507 0.495 57.895 0.287 57.026 0.287 C 55.83 0.287 54.892 0.711 54.213 1.557 C 54.213 1.542 53.933 1.275 53.371 0.758 C 54.188 -0.271 55.432 -0.785 57.102 -0.785 C 59.554 -0.785 60.779 0.426 60.779 2.848 L 60.779 9.458 L 59.619 9.458 Z M 59.39 7.302 L 59.39 4.489 L 58.416 4.665 C 57.358 4.847 56.603 4.985 56.15 5.08 C 55.575 5.241 55.111 5.46 54.76 5.737 C 54.44 5.992 54.279 6.368 54.279 6.864 C 54.279 8.112 54.899 8.735 56.139 8.735 C 57.176 8.735 58.259 8.257 59.39 7.302 Z M 64.926 -0.085 C 65.582 -0.552 66.392 -0.785 67.355 -0.785 C 68.129 -0.785 68.851 -0.574 69.522 -0.15 C 70.23 0.323 70.722 1.133 70.999 2.279 L 69.839 2.596 C 69.613 1.794 69.306 1.203 68.92 0.823 C 68.534 0.444 68.03 0.254 67.41 0.254 C 66.411 0.254 65.659 0.619 65.156 1.349 C 64.644 2.079 64.39 3.107 64.39 4.435 C 64.39 5.726 64.616 6.741 65.068 7.477 C 65.535 8.265 66.268 8.659 67.268 8.659 C 68.559 8.659 69.431 7.896 69.883 6.372 L 70.966 6.689 C 70.74 7.718 70.252 8.491 69.5 9.009 C 68.843 9.461 68.092 9.688 67.246 9.688 C 65.881 9.688 64.827 9.22 64.083 8.287 C 63.347 7.353 62.978 6.076 62.978 4.457 C 62.978 2.326 63.627 0.813 64.926 -0.085 Z M 77.49 8.232 L 77.741 9.14 C 77.246 9.461 76.669 9.622 76.012 9.622 C 75.137 9.622 74.506 9.359 74.119 8.834 C 73.733 8.309 73.539 7.455 73.539 6.273 L 73.539 0.419 L 72.062 0.419 L 72.062 -0.577 L 73.638 -0.577 L 73.638 -3.762 L 74.951 -4.123 L 74.951 -0.577 L 77.129 -0.577 L 77.129 0.419 L 74.951 0.419 L 74.951 6.897 C 74.951 8.013 75.403 8.571 76.308 8.571 C 76.6 8.571 76.994 8.459 77.49 8.232 Z" style="fill: rgb(51, 51, 51); white-space: pre;"/>
  <polygon style="fill: rgb(51, 51, 51);" id="polygon9" points="273.149 -6.952 283.655 11.312 262.644 11.312"/>
  <path style="fill: rgb(51, 51, 51); stroke-width: 0.211578;" id="path11" d="M 286.989 8.243 L 294.408 8.243 L 294.408 6.981 L 288.838 6.981 L 294.316 -0.682 L 294.316 -1.784 L 287.078 -1.784 L 287.078 -0.522 L 292.466 -0.522 L 286.989 7.141 Z M 302.172 8.243 L 308.829 8.243 L 308.829 6.981 L 303.678 6.981 L 303.678 3.763 L 308.158 3.763 L 308.158 2.5 L 303.678 2.5 L 303.678 -0.522 L 308.829 -0.522 L 308.829 -1.784 L 302.172 -1.784 Z M 316.847 8.243 L 323.341 8.243 L 323.341 6.981 L 320.856 6.981 L 320.856 -0.522 L 323.341 -0.522 L 323.341 -1.784 L 316.847 -1.784 L 316.847 -0.522 L 319.35 -0.522 L 319.35 6.981 L 316.847 6.981 Z M 334.026 8.243 L 335.532 8.243 L 335.532 -0.522 L 339.015 -0.522 L 339.015 -1.784 L 330.579 -1.784 L 330.579 -0.522 L 334.026 -0.522 Z"/>
  <g transform="matrix(0.715599, 0, 0, 0.715599, 112.39785, -4.878286)" style="">
    <path d="M 13.71 2.275 L 8.004 2.275 L 8.004 18.79 L 5.672 18.79 L 5.672 2.275 L 0 2.275 L 0 0.325 L 13.71 0.325 L 13.71 2.275 Z M 24.464 5.591 L 17.957 20.904 C 16.808 23.634 15.172 25 13.085 25 C 12.493 25 12.005 24.934 11.623 24.838 L 11.623 22.952 C 12.11 23.114 12.562 23.179 12.945 23.179 C 14.093 23.179 14.929 22.529 15.52 21.262 L 16.635 18.758 L 11.136 5.591 L 13.642 5.591 L 17.469 15.735 C 17.505 15.864 17.609 16.19 17.748 16.742 L 17.816 16.742 C 17.852 16.547 17.957 16.222 18.095 15.767 L 22.098 5.591 L 24.464 5.591 L 24.464 5.591 Z M 28.152 16.873 L 28.083 16.873 L 28.083 24.838 L 25.821 24.838 L 25.821 5.591 L 28.083 5.591 L 28.083 7.899 L 28.152 7.899 C 29.267 6.144 30.901 5.267 33.024 5.267 C 34.834 5.267 36.261 5.851 37.27 7.022 C 38.279 8.192 38.801 9.785 38.801 11.768 C 38.801 13.979 38.209 15.735 37.062 17.068 C 35.913 18.401 34.346 19.05 32.364 19.05 C 30.589 19.116 29.162 18.368 28.152 16.873 L 28.152 16.873 Z M 28.118 11.573 L 28.118 13.426 C 28.118 14.532 28.501 15.442 29.267 16.19 C 30.031 16.937 30.972 17.328 32.154 17.328 C 33.512 17.328 34.591 16.84 35.391 15.864 C 36.156 14.889 36.539 13.524 36.539 11.768 C 36.539 10.305 36.191 9.136 35.46 8.323 C 34.729 7.477 33.755 7.088 32.503 7.088 C 31.18 7.088 30.136 7.51 29.336 8.355 C 28.501 9.2 28.118 10.273 28.118 11.573 L 28.118 11.573 Z M 52.651 12.712 L 42.699 12.712 C 42.733 14.174 43.151 15.312 43.952 16.124 C 44.752 16.937 45.866 17.328 47.293 17.328 C 48.893 17.328 50.354 16.84 51.677 15.864 L 51.677 17.848 C 50.424 18.692 48.788 19.116 46.769 19.116 C 44.787 19.116 43.22 18.53 42.071 17.328 C 40.924 16.124 40.367 14.434 40.367 12.288 C 40.367 10.24 40.993 8.55 42.247 7.282 C 43.498 5.982 45.03 5.331 46.874 5.331 C 48.719 5.331 50.146 5.884 51.155 7.022 C 52.164 8.127 52.686 9.687 52.686 11.671 L 52.651 12.712 L 52.651 12.712 Z M 50.32 10.924 C 50.32 9.687 50.006 8.745 49.38 8.063 C 48.753 7.379 47.884 7.055 46.805 7.055 C 45.726 7.055 44.822 7.412 44.09 8.127 C 43.36 8.843 42.873 9.785 42.699 10.924 L 50.32 10.924 Z M 53.765 18.141 L 53.765 16.677 C 55.192 17.523 56.618 17.945 58.08 17.945 C 59.611 17.945 60.794 17.653 61.595 17.035 C 62.396 16.417 62.778 15.604 62.778 14.532 C 62.778 13.589 62.498 12.841 61.977 12.256 C 61.455 11.704 60.273 10.924 58.497 9.947 C 56.479 8.843 55.227 7.932 54.705 7.217 C 54.183 6.469 53.904 5.624 53.904 4.682 C 53.904 3.381 54.462 2.275 55.539 1.366 C 56.618 0.455 58.08 0 59.89 0 C 61.073 0 62.255 0.195 63.404 0.553 L 63.404 1.886 C 62.255 1.398 61.003 1.138 59.681 1.138 C 58.324 1.138 57.279 1.463 56.479 2.081 C 55.679 2.73 55.297 3.511 55.297 4.487 C 55.297 5.429 55.575 6.177 56.097 6.73 C 56.618 7.282 57.801 8.063 59.576 9.005 C 61.42 9.98 62.639 10.858 63.265 11.606 C 63.891 12.354 64.169 13.232 64.169 14.239 C 64.169 15.669 63.647 16.808 62.603 17.717 C 61.56 18.628 60.063 19.05 58.149 19.05 C 57.453 19.05 56.688 18.953 55.784 18.758 C 54.878 18.563 54.216 18.401 53.765 18.141 L 53.765 18.141 Z M 75.932 18.205 C 74.889 18.79 73.635 19.116 72.173 19.116 C 70.259 19.116 68.694 18.498 67.51 17.262 C 66.327 16.027 65.736 14.434 65.736 12.419 C 65.736 10.338 66.397 8.615 67.72 7.282 C 69.042 5.949 70.747 5.267 72.835 5.267 C 73.914 5.267 74.957 5.462 75.967 5.884 L 75.967 7.217 C 74.957 6.632 73.844 6.339 72.661 6.339 C 70.991 6.339 69.667 6.892 68.623 7.997 C 67.58 9.103 67.093 10.566 67.093 12.321 C 67.093 14.045 67.58 15.409 68.52 16.45 C 69.459 17.49 70.712 18.01 72.243 18.01 C 73.669 18.01 74.889 17.653 75.932 16.97 L 75.932 18.205 L 75.932 18.205 Z M 84.353 6.826 C 83.936 6.535 83.449 6.404 82.857 6.404 C 81.744 6.404 80.804 6.957 80.073 8.03 C 79.307 9.103 78.96 10.631 78.96 12.614 L 78.96 18.823 L 77.706 18.823 L 77.706 5.591 L 78.96 5.591 L 78.96 8.518 L 79.029 8.518 C 79.342 7.51 79.865 6.73 80.56 6.177 C 81.256 5.624 82.057 5.331 82.996 5.331 C 83.517 5.331 84.004 5.397 84.388 5.559 L 84.388 6.826 L 84.353 6.826 L 84.353 6.826 Z M 86.371 2.275 C 86.093 2.275 85.85 2.179 85.641 1.983 C 85.431 1.788 85.328 1.561 85.328 1.268 C 85.328 0.975 85.431 0.748 85.641 0.585 C 85.85 0.422 86.093 0.325 86.371 0.325 C 86.651 0.325 86.894 0.422 87.137 0.585 C 87.345 0.748 87.45 0.975 87.45 1.268 C 87.45 1.528 87.345 1.788 87.137 1.983 C 86.894 2.179 86.651 2.275 86.371 2.275 Z M 85.745 18.79 L 85.745 5.591 L 86.998 5.591 L 86.998 18.79 L 85.745 18.79 Z M 91.348 16.45 L 91.278 16.45 L 91.278 24.869 L 90.026 24.869 L 90.026 5.591 L 91.278 5.591 L 91.278 8.323 L 91.348 8.323 C 91.87 7.348 92.566 6.599 93.506 6.079 C 94.446 5.559 95.489 5.299 96.602 5.299 C 98.411 5.299 99.804 5.884 100.814 7.022 C 101.823 8.192 102.31 9.753 102.31 11.735 C 102.31 13.947 101.718 15.735 100.569 17.1 C 99.422 18.465 97.89 19.148 96.012 19.148 C 93.923 19.116 92.357 18.238 91.348 16.45 Z M 91.278 11.541 L 91.278 13.199 C 91.278 14.532 91.73 15.669 92.6 16.613 C 93.506 17.555 94.654 18.043 96.115 18.043 C 97.541 18.043 98.725 17.457 99.631 16.32 C 100.535 15.149 100.987 13.654 100.987 11.768 C 100.987 10.111 100.569 8.81 99.735 7.835 C 98.899 6.859 97.821 6.372 96.428 6.372 C 94.792 6.372 93.506 6.892 92.6 7.932 C 91.697 8.972 91.278 10.143 91.278 11.541 Z M 110 18.596 C 109.34 18.888 108.712 19.018 108.156 19.018 C 106.068 19.018 105.024 17.848 105.024 15.507 L 105.024 6.697 L 102.484 6.697 L 102.484 5.624 L 105.024 5.624 L 105.024 2.179 L 105.651 1.983 L 106.277 1.788 L 106.277 5.624 L 110 5.624 L 110 6.697 L 106.277 6.697 L 106.277 15.409 C 106.277 16.32 106.416 16.97 106.729 17.393 C 107.042 17.815 107.565 18.01 108.295 18.01 C 108.817 18.01 109.375 17.848 110 17.523 L 110 18.596 L 110 18.596 Z" style="fill: rgb(51, 51, 51);"/>
  </g>
  <polygon points="90.168 3.049 90.168 12.565 99.684 12.565 109.199 12.565 109.199 3.049 109.199 -6.466 99.684 -6.466 90.168 -6.466" style="fill: rgb(51, 51, 51);"/>
  <path d="M 102.107 9.932 L 102.112 9.298 L 101.104 9.298 L 100.097 9.298 L 100.097 6.435 L 100.097 3.572 L 99.384 3.572 L 98.671 3.572 L 98.671 6.435 L 98.671 9.298 L 97.664 9.298 L 96.656 9.298 L 96.656 9.92 C 96.656 10.264 96.663 10.552 96.673 10.559 C 96.681 10.569 97.907 10.574 99.394 10.571 L 102.1 10.564 L 102.107 9.932 Z" fill="#FFFFFF" transform="matrix(-1, 0, 0, -1, 198.767998, 14.143865)"/>
  <path d="M 105.736 3.652 C 106.121 3.749 106.414 3.919 106.684 4.198 C 106.823 4.348 107.03 4.619 107.047 4.684 C 107.051 4.703 106.393 5.146 105.993 5.394 C 105.979 5.403 105.921 5.341 105.856 5.245 C 105.662 4.961 105.457 4.838 105.144 4.817 C 104.685 4.785 104.389 5.026 104.391 5.428 C 104.391 5.545 104.408 5.615 104.456 5.711 C 104.557 5.92 104.745 6.045 105.334 6.3 C 106.419 6.767 106.883 7.075 107.172 7.512 C 107.494 8.001 107.566 8.78 107.347 9.36 C 107.107 9.989 106.51 10.418 105.671 10.56 C 105.411 10.605 104.796 10.598 104.517 10.548 C 103.908 10.439 103.331 10.139 102.975 9.745 C 102.836 9.591 102.564 9.189 102.581 9.16 C 102.588 9.15 102.65 9.112 102.72 9.071 C 102.787 9.032 103.042 8.886 103.283 8.746 L 103.718 8.494 L 103.81 8.628 C 103.937 8.823 104.216 9.09 104.384 9.179 C 104.868 9.434 105.531 9.398 105.859 9.105 C 105.998 8.977 106.056 8.845 106.056 8.65 C 106.056 8.474 106.034 8.397 105.943 8.265 C 105.825 8.097 105.585 7.955 104.902 7.659 C 104.12 7.323 103.783 7.113 103.475 6.782 C 103.297 6.589 103.129 6.281 103.059 6.024 C 103.002 5.81 102.987 5.274 103.033 5.057 C 103.194 4.302 103.764 3.775 104.587 3.618 C 104.853 3.568 105.474 3.588 105.736 3.652 Z" fill="#FFFFFF"/>
  <g transform="matrix(0.08897, 0, 0, 0.080937, 203.337799, -9.247542)" style="">
    <path d="M120.81043,80.5613102 L217.378325,80.5613102 L217.378325,88.2366589 L129.662487,88.2366589 L129.662487,146.003758 L212.147564,146.003758 L212.147564,153.679106 L129.662487,153.679106 L129.662487,217.101725 L218.384241,217.101725 L218.384241,224.777073 L120.81043,224.777073 L120.81043,80.5613102 Z M226.0292,80.5613102 L236.289538,80.5613102 L281.756922,143.983929 L328.230222,80.5613102 L391.441486,0 L287.591232,150.649363 L341.105941,224.777073 L330.443237,224.777073 L281.756922,157.314798 L232.869425,224.777073 L222.407904,224.777073 L276.324978,150.649363 L226.0292,80.5613102 Z M344.928421,88.2366588 L344.928421,80.5613102 L454.975585,80.5613102 L454.975585,88.2366589 L404.27744,88.2366589 L404.27744,224.777073 L395.425382,224.777073 L395.425382,88.2366589 L344.928421,88.2366588 Z M1.42108547e-14,80.5613102 L11.0650714,80.5613102 L163.64593,308.884007 L100.591558,224.777073 L9.25442331,91.4683847 L8.85205708,224.777073 L1.42108547e-14,224.777073 L1.42108547e-14,80.5613102 Z M454.083705,214.785469 C452.275167,214.785469 450.918762,213.38418 450.918762,211.573285 C450.918762,209.762388 452.275167,208.361099 454.083705,208.361099 C455.913774,208.361099 457.248648,209.762388 457.248648,211.573285 C457.248648,213.38418 455.913774,214.785469 454.083705,214.785469 Z M462.781915,206.334618 L467.518563,206.334618 C467.583153,208.900055 469.456284,210.624719 472.212151,210.624719 C475.290972,210.624719 477.03492,208.770705 477.03492,205.29982 L477.03492,183.310363 L481.85769,183.310363 L481.85769,205.321379 C481.85769,211.573285 478.240613,215.173518 472.255212,215.173518 C466.635824,215.173518 462.781915,211.681076 462.781915,206.334618 Z M488.166045,206.054362 L492.945754,206.054362 C493.354828,209.007848 496.239878,210.883419 500.395211,210.883419 C504.270652,210.883419 507.11264,208.878498 507.11264,206.119036 C507.11264,203.747625 505.304102,202.324777 501.191828,201.354653 L497.187209,200.384531 C491.56782,199.069474 489.005723,196.353129 489.005723,191.782772 C489.005723,186.24229 493.527071,182.555823 500.30909,182.555823 C506.617445,182.555823 511.224912,186.24229 511.504805,191.480955 L506.811217,191.480955 C506.359083,188.613703 503.861576,186.824365 500.244499,186.824365 C496.43365,186.824365 493.893085,188.656819 493.893085,191.459398 C493.893085,193.679901 495.52938,194.95184 499.577063,195.900406 L503.000368,196.741178 C509.373314,198.228702 512,200.815695 512,205.493846 C512,211.443935 507.392533,215.173518 500.029197,215.173518 C493.139526,215.173518 488.51053,211.6164 488.166045,206.054362 Z" fill-rule="nonzero" style="fill: rgb(51, 51, 51); stroke-width: 185.329px;"/>
  </g>
  <g transform="matrix(0.086666, 0, 0, 0.086666, 88.93235, 77.832314)">
    <path d="M127.999999,288.463771 C124.024844,288.463771 120.314699,287.403728 116.869564,285.548656 L81.6231884,264.612838 C76.32298,261.697724 78.9730854,260.637682 80.5631458,260.107661 C87.7184259,257.72257 89.0434775,257.192547 96.4637688,252.952381 C97.2587979,252.422361 98.3188405,252.687372 99.1138718,253.217392 L126.144927,269.383024 C127.20497,269.913045 128.530021,269.913045 129.325053,269.383024 L235.064182,208.165634 C236.124225,207.635611 236.654245,206.575571 236.654245,205.250519 L236.654245,83.0807467 C236.654245,81.7556929 236.124225,80.6956526 235.064182,80.1656324 L129.325053,19.2132506 C128.26501,18.6832305 126.939959,18.6832305 126.144927,19.2132506 L20.4057954,80.1656324 C19.3457551,80.6956526 18.8157349,82.0207041 18.8157349,83.0807467 L18.8157349,205.250519 C18.8157349,206.31056 19.3457551,207.635611 20.4057954,208.165634 L49.2919247,224.861286 C64.9275364,232.811595 74.7329196,223.536234 74.7329196,214.260871 L74.7329196,93.681159 C74.7329196,92.0910985 76.0579711,90.5010358 77.9130428,90.5010358 L91.4285716,90.5010358 C93.0186343,90.5010358 94.6086948,91.8260873 94.6086948,93.681159 L94.6086948,214.260871 C94.6086948,235.196689 83.2132512,247.387164 63.3374737,247.387164 C57.2422362,247.387164 52.4720502,247.387164 38.9565214,240.761906 L11.1304347,224.861286 C4.24016581,220.886129 5.68434189e-14,213.46584 5.68434189e-14,205.515528 L5.68434189e-14,83.3457557 C5.68434189e-14,75.3954465 4.24016581,67.9751552 11.1304347,64.0000006 L116.869564,2.78260752 C123.494824,-0.927535841 132.505176,-0.927535841 139.130436,2.78260752 L244.869565,64.0000006 C251.759834,67.9751552 256,75.3954465 256,83.3457557 L256,205.515528 C256,213.46584 251.759834,220.886129 244.869565,224.861286 L139.130436,286.078676 C135.685299,287.668739 131.710145,288.463771 127.999999,288.463771 L127.999999,288.463771 Z M160.596274,204.455488 C114.219461,204.455488 104.679089,183.254659 104.679089,165.233955 C104.679089,163.643893 106.004141,162.053832 107.859212,162.053832 L121.639752,162.053832 C123.229813,162.053832 124.554864,163.113872 124.554864,164.703935 C126.674947,178.749484 132.770187,185.639753 160.861283,185.639753 C183.122154,185.639753 192.662526,180.604556 192.662526,168.67909 C192.662526,161.788821 190.012423,156.753624 155.296065,153.308489 C126.409938,150.393375 108.389235,144.033126 108.389235,120.977226 C108.389235,99.5113875 126.409938,86.7908901 156.621119,86.7908901 C190.542443,86.7908901 207.238095,98.4513472 209.358178,123.89234 C209.358178,124.687371 209.093167,125.482403 208.563147,126.277434 C208.033127,126.807454 207.238095,127.337474 206.443064,127.337474 L192.662526,127.337474 C191.337475,127.337474 190.012423,126.277434 189.747412,124.952382 C186.567289,110.376813 178.351966,105.606625 156.621119,105.606625 C132.240165,105.606625 129.325053,114.086957 129.325053,120.447205 C129.325053,128.132506 132.770187,130.5176 165.631471,134.757766 C198.227744,138.997931 213.598344,145.093169 213.598344,167.884058 C213.333333,191.20497 194.252589,204.455488 160.596274,204.455488 L160.596274,204.455488 Z" style="fill: rgb(51, 51, 51);"/>
  </g>
  <path d="M 79.944 85.934 C 79.653 85.834 79.35 85.74 79.038 85.649 C 79.089 85.441 79.136 85.234 79.179 85.032 C 79.864 81.708 79.416 79.031 77.888 78.15 C 76.421 77.305 74.024 78.186 71.602 80.292 C 71.369 80.494 71.136 80.711 70.902 80.934 C 70.747 80.786 70.591 80.643 70.438 80.504 C 67.899 78.251 65.357 77.302 63.829 78.186 C 62.364 79.033 61.93 81.55 62.548 84.7 C 62.606 85.005 62.676 85.315 62.756 85.63 C 62.394 85.734 62.047 85.842 61.716 85.96 C 58.739 86.995 56.84 88.622 56.84 90.307 C 56.84 92.05 58.879 93.794 61.977 94.856 C 62.222 94.938 62.477 95.017 62.738 95.094 C 62.653 95.434 62.58 95.768 62.517 96.094 C 61.928 99.191 62.389 101.648 63.85 102.492 C 65.358 103.36 67.889 102.466 70.355 100.312 C 70.55 100.141 70.746 99.96 70.942 99.772 C 71.195 100.016 71.451 100.247 71.701 100.467 C 74.089 102.521 76.448 103.351 77.908 102.503 C 79.414 101.633 79.904 98.992 79.267 95.779 C 79.219 95.535 79.163 95.284 79.1 95.028 C 79.278 94.976 79.452 94.92 79.623 94.865 C 82.843 93.799 84.941 92.074 84.941 90.307 C 84.941 88.616 82.979 86.978 79.944 85.934 L 79.944 85.934 L 79.944 85.934 Z" style="fill: rgb(51, 51, 51);"/>
  <path d="M 79.216 93.707 C 79.062 93.756 78.904 93.805 78.744 93.852 C 78.39 92.728 77.908 91.533 77.323 90.298 C 77.882 89.093 78.342 87.912 78.689 86.795 C 78.976 86.877 79.254 86.966 79.522 87.058 C 82.119 87.952 83.703 89.275 83.703 90.291 C 83.703 91.376 81.991 92.785 79.216 93.707 L 79.216 93.707 L 79.216 93.707 Z M 78.063 95.989 C 78.342 97.407 78.384 98.69 78.198 99.69 C 78.032 100.593 77.694 101.194 77.28 101.433 C 76.394 101.947 74.504 101.281 72.465 99.525 C 72.23 99.324 71.995 99.11 71.759 98.883 C 72.549 98.019 73.339 97.012 74.109 95.895 C 75.469 95.776 76.748 95.578 77.911 95.311 C 77.967 95.54 78.019 95.766 78.063 95.989 L 78.063 95.989 L 78.063 95.989 Z M 66.407 101.347 C 65.544 101.651 64.855 101.659 64.44 101.421 C 63.553 100.908 63.188 98.938 63.689 96.296 C 63.747 95.993 63.814 95.68 63.895 95.363 C 65.043 95.618 66.316 95.801 67.674 95.91 C 68.452 97.002 69.265 98.008 70.083 98.887 C 69.905 99.06 69.728 99.226 69.55 99.378 C 68.461 100.332 67.37 101.007 66.407 101.347 L 66.407 101.347 L 66.407 101.347 Z M 62.361 93.699 C 60.993 93.232 59.862 92.622 59.088 91.96 C 58.393 91.363 58.041 90.773 58.041 90.291 C 58.041 89.271 59.563 87.967 62.104 87.079 C 62.411 86.974 62.735 86.872 63.071 86.778 C 63.423 87.92 63.881 89.113 64.437 90.321 C 63.875 91.547 63.407 92.761 63.052 93.914 C 62.815 93.847 62.582 93.774 62.361 93.699 L 62.361 93.699 L 62.361 93.699 Z M 63.717 84.461 C 63.191 81.768 63.539 79.734 64.423 79.225 C 65.359 78.68 67.436 79.457 69.623 81.397 C 69.763 81.524 69.905 81.654 70.046 81.786 C 69.23 82.663 68.424 83.659 67.654 84.747 C 66.336 84.866 65.072 85.064 63.911 85.329 C 63.838 85.033 63.774 84.743 63.717 84.461 L 63.717 84.461 L 63.717 84.461 Z M 75.821 87.452 C 75.543 86.972 75.258 86.505 74.969 86.048 C 75.864 86.162 76.721 86.313 77.527 86.495 C 77.284 87.271 76.983 88.081 76.63 88.912 C 76.374 88.429 76.104 87.942 75.821 87.452 L 75.821 87.452 L 75.821 87.452 Z M 70.884 82.644 C 71.437 83.243 71.992 83.912 72.537 84.635 C 71.99 84.612 71.434 84.598 70.872 84.598 C 70.317 84.598 69.765 84.61 69.22 84.635 C 69.765 83.918 70.324 83.248 70.884 82.644 L 70.884 82.644 L 70.884 82.644 Z M 65.918 87.459 C 65.64 87.942 65.376 88.426 65.127 88.911 C 64.776 88.084 64.48 87.268 64.233 86.483 C 65.034 86.304 65.887 86.156 66.777 86.046 C 66.484 86.507 66.195 86.979 65.918 87.459 L 65.918 87.459 L 65.918 87.459 Z M 66.801 94.623 C 65.884 94.521 65.019 94.382 64.218 94.208 C 64.463 93.409 64.77 92.576 65.128 91.73 C 65.377 92.215 65.642 92.699 65.923 93.182 L 65.923 93.182 C 66.205 93.674 66.5 94.153 66.801 94.623 L 66.801 94.623 L 66.801 94.623 Z M 70.918 98.023 C 70.35 97.411 69.785 96.733 69.23 96.004 C 69.767 96.025 70.315 96.036 70.872 96.036 C 71.445 96.036 72.009 96.022 72.564 95.997 C 72.018 96.739 71.469 97.421 70.918 98.023 L 70.918 98.023 L 70.918 98.023 Z M 76.639 91.689 C 77.016 92.542 77.333 93.368 77.582 94.157 C 76.769 94.342 75.891 94.491 74.964 94.604 C 75.256 94.139 75.543 93.664 75.825 93.173 C 76.111 92.679 76.384 92.181 76.639 91.689 L 76.639 91.689 L 76.639 91.689 Z M 74.787 92.575 C 74.35 93.334 73.897 94.062 73.441 94.748 C 72.608 94.806 71.748 94.837 70.872 94.837 C 69.999 94.837 69.149 94.81 68.33 94.756 C 67.855 94.063 67.396 93.333 66.96 92.582 L 66.96 92.582 C 66.525 91.832 66.124 91.074 65.762 90.321 C 66.124 89.567 66.523 88.808 66.956 88.058 L 66.956 88.058 C 67.389 87.307 67.845 86.581 68.317 85.892 C 69.15 85.83 70.008 85.796 70.872 85.796 L 70.872 85.796 C 71.741 85.796 72.597 85.83 73.431 85.893 C 73.895 86.578 74.349 87.301 74.783 88.053 C 75.224 88.812 75.628 89.566 75.993 90.305 C 75.629 91.055 75.226 91.815 74.787 92.575 L 74.787 92.575 L 74.787 92.575 Z M 77.26 79.188 C 78.199 79.73 78.566 81.918 77.976 84.783 C 77.936 84.965 77.895 85.152 77.849 85.339 C 76.685 85.072 75.422 84.871 74.098 84.748 C 73.325 83.649 72.526 82.65 71.727 81.786 C 71.939 81.58 72.156 81.381 72.37 81.195 C 74.442 79.392 76.378 78.679 77.26 79.188 L 77.26 79.188 L 77.26 79.188 Z" fill="#FFFFFF" style=""/>
  <path d="M 70.872 87.786 C 72.256 87.786 73.379 88.907 73.379 90.291 C 73.379 91.676 72.256 92.797 70.872 92.797 C 69.489 92.797 68.367 91.676 68.367 90.291 C 68.367 88.907 69.489 87.786 70.872 87.786" style="fill: rgb(51, 51, 51);"/>
  <polygon points="117.021 90.331 117.021 102.832 129.522 102.832 142.021 102.832 142.021 90.331 142.021 77.832 129.522 77.832 117.021 77.832" style="fill: rgb(51, 51, 51);"/>
  <path d="M 132.705 99.373 L 132.711 98.54 L 131.387 98.54 L 130.064 98.54 L 130.064 94.779 L 130.064 91.018 L 129.128 91.018 L 128.191 91.018 L 128.191 94.779 L 128.191 98.54 L 126.868 98.54 L 125.544 98.54 L 125.544 99.357 C 125.544 99.809 125.553 100.188 125.566 100.197 C 125.577 100.21 127.187 100.217 129.141 100.213 L 132.695 100.203 L 132.705 99.373 Z" fill="#FFFFFF" transform="matrix(-1, 0, 0, -1, 258.254997, 191.232117)"/>
  <path d="M 137.472 91.123 C 137.978 91.251 138.363 91.474 138.717 91.841 C 138.9 92.038 139.172 92.394 139.194 92.479 C 139.199 92.504 138.335 93.086 137.809 93.412 C 137.791 93.424 137.715 93.342 137.629 93.216 C 137.375 92.843 137.105 92.681 136.694 92.654 C 136.091 92.612 135.702 92.928 135.705 93.457 C 135.705 93.61 135.727 93.702 135.79 93.828 C 135.923 94.103 136.17 94.267 136.944 94.602 C 138.369 95.215 138.979 95.62 139.358 96.194 C 139.781 96.837 139.876 97.86 139.588 98.622 C 139.273 99.448 138.489 100.012 137.386 100.198 C 137.045 100.257 136.237 100.248 135.871 100.182 C 135.071 100.039 134.313 99.645 133.845 99.128 C 133.662 98.925 133.305 98.397 133.327 98.359 C 133.336 98.346 133.418 98.296 133.51 98.242 C 133.598 98.191 133.933 97.999 134.249 97.815 L 134.821 97.484 L 134.942 97.66 C 135.109 97.916 135.475 98.267 135.696 98.384 C 136.332 98.719 137.203 98.672 137.633 98.287 C 137.816 98.119 137.892 97.945 137.892 97.689 C 137.892 97.458 137.863 97.357 137.744 97.183 C 137.589 96.963 137.273 96.776 136.376 96.387 C 135.349 95.946 134.906 95.67 134.502 95.235 C 134.268 94.982 134.047 94.577 133.955 94.239 C 133.88 93.958 133.861 93.254 133.921 92.969 C 134.133 91.977 134.881 91.285 135.962 91.079 C 136.312 91.013 137.128 91.039 137.472 91.123 Z" fill="#FFFFFF"/>
  <g transform="matrix(0.163328, 0, 0, 0.163328, 353.499054, -10.410543)" style="">
    <path d="M73.69,71.031C73.69,69.601 72.938,68.288 71.704,67.58L38.829,48.66C38.273,48.333 37.649,48.163 37.019,48.137L36.679,48.137C36.05,48.163 35.427,48.333 34.863,48.66L1.987,67.58C0.762,68.288 0,69.601 0,71.031L0.072,121.976C0.072,122.684 0.44,123.344 1.063,123.691C1.673,124.057 2.428,124.057 3.035,123.691L22.574,112.503C23.809,111.769 24.561,110.474 24.561,109.058L24.561,85.257C24.561,83.838 25.313,82.525 26.544,81.819L34.863,77.027C35.484,76.669 36.161,76.494 36.854,76.494C37.531,76.494 38.226,76.669 38.829,77.027L47.145,81.819C48.376,82.525 49.131,83.838 49.131,85.257L49.131,109.058C49.131,110.474 49.893,111.777 51.121,112.503L70.654,123.691C71.267,124.057 72.032,124.057 72.639,123.691C73.244,123.344 73.625,122.684 73.625,121.976L73.69,71.031Z" style="fill: rgb(51, 51, 51);"/>
    <path d="M246.188,97.558C246.188,97.912 245.998,98.24 245.691,98.417L234.399,104.925C234.092,105.102 233.714,105.102 233.408,104.925L222.115,98.417C221.808,98.24 221.619,97.912 221.619,97.558L221.619,84.519C221.619,84.165 221.808,83.837 222.114,83.659L233.406,77.137C233.714,76.959 234.092,76.959 234.4,77.137L245.692,83.659C245.998,83.837 246.188,84.165 246.188,84.519L246.188,97.558ZM249.239,0.997C248.624,0.654 247.873,0.662 247.265,1.019C246.659,1.375 246.286,2.027 246.286,2.731L246.286,53.184C246.286,53.68 246.02,54.139 245.592,54.388C245.162,54.636 244.631,54.636 244.201,54.388L235.967,49.644C234.739,48.936 233.227,48.937 231.999,49.645L199.11,68.625C197.881,69.335 197.124,70.646 197.124,72.064L197.124,110.033C197.124,111.451 197.881,112.762 199.109,113.473L231.996,132.467C233.226,133.177 234.74,133.177 235.969,132.467L268.862,113.473C270.09,112.762 270.847,111.451 270.847,110.033L270.847,15.386C270.847,13.947 270.069,12.62 268.811,11.918L249.239,0.997Z" style="fill: rgb(51, 51, 51);"/>
    <path d="M366.904,84.178C368.127,83.467 368.88,82.159 368.88,80.744L368.88,71.543C368.88,70.128 368.127,68.819 366.902,68.108L334.225,49.135C332.996,48.421 331.478,48.419 330.246,49.13L297.368,68.11C296.14,68.82 295.383,70.13 295.383,71.549L295.383,109.507C295.383,110.935 296.149,112.252 297.389,112.958L330.061,131.575C331.266,132.263 332.743,132.27 333.956,131.598L353.718,120.613C354.345,120.264 354.735,119.606 354.739,118.89C354.744,118.174 354.363,117.511 353.742,117.155L320.657,98.166C320.039,97.812 319.659,97.154 319.659,96.443L319.659,84.547C319.659,83.838 320.037,83.181 320.653,82.827L330.95,76.891C331.563,76.537 332.32,76.537 332.932,76.891L343.235,82.827C343.85,83.181 344.228,83.838 344.228,84.547L344.228,93.907C344.228,94.618 344.608,95.274 345.224,95.628C345.839,95.983 346.597,95.981 347.211,95.624L366.904,84.178Z" style="fill: rgb(51, 51, 51);"/>
    <path d="M133.494,48.93C134.722,48.221 136.236,48.221 137.464,48.93L170.349,67.907C171.579,68.616 172.336,69.927 172.336,71.347L172.336,109.33C172.336,110.748 171.579,112.059 170.35,112.77L137.466,131.762C136.236,132.471 134.722,132.471 133.492,131.762L100.615,112.77C99.387,112.059 98.63,110.748 98.63,109.33L98.63,71.346C98.63,69.927 99.387,68.616 100.617,67.907L133.494,48.93Z" style="fill: rgb(51, 51, 51);"/>
    <path d="M430.754,132.304C429.621,132.304 428.493,132.008 427.502,131.434L417.149,125.308C415.603,124.443 416.358,124.137 416.868,123.959C418.93,123.243 419.348,123.078 421.549,121.83C421.778,121.701 422.082,121.75 422.319,121.889L430.272,126.611C430.561,126.771 430.968,126.771 431.233,126.611L462.242,108.713C462.53,108.548 462.716,108.216 462.716,107.874L462.716,72.089C462.716,71.738 462.53,71.412 462.234,71.234L431.238,53.351C430.952,53.184 430.571,53.184 430.283,53.351L399.294,71.239C398.993,71.412 398.803,71.749 398.803,72.089L398.803,107.874C398.803,108.216 398.993,108.541 399.292,108.703L407.786,113.611C412.395,115.915 415.217,113.201 415.217,110.474L415.217,75.142C415.217,74.643 415.619,74.249 416.118,74.249L420.05,74.249C420.542,74.249 420.949,74.643 420.949,75.142L420.949,110.474C420.949,116.626 417.599,120.153 411.767,120.153C409.975,120.153 408.564,120.153 404.624,118.212L396.493,113.531C394.485,112.369 393.241,110.199 393.241,107.874L393.241,72.089C393.241,69.764 394.485,67.593 396.493,66.437L427.502,48.518C429.464,47.409 432.072,47.409 434.019,48.518L465.026,66.437C467.034,67.598 468.283,69.764 468.283,72.089L468.283,107.874C468.283,110.199 467.034,112.362 465.026,113.531L434.019,131.434C433.028,132.008 431.902,132.304 430.754,132.304Z" style="fill-rule: nonzero; fill: rgb(51, 51, 51);"/>
    <path d="M440.332,107.65C426.763,107.65 423.92,101.421 423.92,96.197C423.92,95.7 424.319,95.304 424.816,95.304L428.826,95.304C429.273,95.304 429.647,95.626 429.716,96.063C430.322,100.144 432.126,102.204 440.332,102.204C446.865,102.204 449.646,100.726 449.646,97.261C449.646,95.262 448.858,93.779 438.705,92.785C430.221,91.946 424.973,90.071 424.973,83.284C424.973,77.027 430.247,73.296 439.089,73.296C449.023,73.296 453.938,76.744 454.561,84.142C454.584,84.397 454.494,84.641 454.324,84.832C454.154,85.009 453.918,85.117 453.668,85.117L449.643,85.117C449.226,85.117 448.858,84.821 448.773,84.417C447.807,80.122 445.459,78.75 439.089,78.75C431.957,78.75 431.127,81.235 431.127,83.096C431.127,85.352 432.106,86.008 441.736,87.283C451.265,88.542 455.792,90.326 455.792,97.024C455.792,103.78 450.158,107.65 440.332,107.65Z" style="fill-rule: nonzero; fill: rgb(51, 51, 51);"/>
    <path d="M331.751,82.4C331.986,82.263 332.277,82.263 332.513,82.4L338.824,86.041C339.059,86.177 339.205,86.428 339.205,86.701L339.205,93.988C339.205,94.261 339.059,94.512 338.824,94.648L332.513,98.289C332.277,98.426 331.986,98.426 331.751,98.289L325.445,94.648C325.209,94.512 325.064,94.261 325.064,93.988L325.064,86.701C325.064,86.428 325.209,86.177 325.445,86.041L331.751,82.4Z" style="fill: rgb(51, 51, 51);"/>
  </g>
</svg>