<?xml version="1.0" encoding="utf-8"?>
<svg width="100%" height="100%" viewBox="0 0 77.3 30" version="1.1" style="fill-rule:evenodd;clip-rule:evenodd;stroke-linejoin:round;stroke-miterlimit:2;" xmlns="http://www.w3.org/2000/svg">
  <g transform="matrix(0.163328, 0, 0, 0.163328, 0, 1.884079)" style="">
    <path d="M73.69,71.031C73.69,69.601 72.938,68.288 71.704,67.58L38.829,48.66C38.273,48.333 37.649,48.163 37.019,48.137L36.679,48.137C36.05,48.163 35.427,48.333 34.863,48.66L1.987,67.58C0.762,68.288 0,69.601 0,71.031L0.072,121.976C0.072,122.684 0.44,123.344 1.063,123.691C1.673,124.057 2.428,124.057 3.035,123.691L22.574,112.503C23.809,111.769 24.561,110.474 24.561,109.058L24.561,85.257C24.561,83.838 25.313,82.525 26.544,81.819L34.863,77.027C35.484,76.669 36.161,76.494 36.854,76.494C37.531,76.494 38.226,76.669 38.829,77.027L47.145,81.819C48.376,82.525 49.131,83.838 49.131,85.257L49.131,109.058C49.131,110.474 49.893,111.777 51.121,112.503L70.654,123.691C71.267,124.057 72.032,124.057 72.639,123.691C73.244,123.344 73.625,122.684 73.625,121.976L73.69,71.031Z" style="fill: rgb(51, 51, 51);"/>
    <path d="M246.188,97.558C246.188,97.912 245.998,98.24 245.691,98.417L234.399,104.925C234.092,105.102 233.714,105.102 233.408,104.925L222.115,98.417C221.808,98.24 221.619,97.912 221.619,97.558L221.619,84.519C221.619,84.165 221.808,83.837 222.114,83.659L233.406,77.137C233.714,76.959 234.092,76.959 234.4,77.137L245.692,83.659C245.998,83.837 246.188,84.165 246.188,84.519L246.188,97.558ZM249.239,0.997C248.624,0.654 247.873,0.662 247.265,1.019C246.659,1.375 246.286,2.027 246.286,2.731L246.286,53.184C246.286,53.68 246.02,54.139 245.592,54.388C245.162,54.636 244.631,54.636 244.201,54.388L235.967,49.644C234.739,48.936 233.227,48.937 231.999,49.645L199.11,68.625C197.881,69.335 197.124,70.646 197.124,72.064L197.124,110.033C197.124,111.451 197.881,112.762 199.109,113.473L231.996,132.467C233.226,133.177 234.74,133.177 235.969,132.467L268.862,113.473C270.09,112.762 270.847,111.451 270.847,110.033L270.847,15.386C270.847,13.947 270.069,12.62 268.811,11.918L249.239,0.997Z" style="fill: rgb(51, 51, 51);"/>
    <path d="M366.904,84.178C368.127,83.467 368.88,82.159 368.88,80.744L368.88,71.543C368.88,70.128 368.127,68.819 366.902,68.108L334.225,49.135C332.996,48.421 331.478,48.419 330.246,49.13L297.368,68.11C296.14,68.82 295.383,70.13 295.383,71.549L295.383,109.507C295.383,110.935 296.149,112.252 297.389,112.958L330.061,131.575C331.266,132.263 332.743,132.27 333.956,131.598L353.718,120.613C354.345,120.264 354.735,119.606 354.739,118.89C354.744,118.174 354.363,117.511 353.742,117.155L320.657,98.166C320.039,97.812 319.659,97.154 319.659,96.443L319.659,84.547C319.659,83.838 320.037,83.181 320.653,82.827L330.95,76.891C331.563,76.537 332.32,76.537 332.932,76.891L343.235,82.827C343.85,83.181 344.228,83.838 344.228,84.547L344.228,93.907C344.228,94.618 344.608,95.274 345.224,95.628C345.839,95.983 346.597,95.981 347.211,95.624L366.904,84.178Z" style="fill: rgb(51, 51, 51);"/>
    <path d="M133.494,48.93C134.722,48.221 136.236,48.221 137.464,48.93L170.349,67.907C171.579,68.616 172.336,69.927 172.336,71.347L172.336,109.33C172.336,110.748 171.579,112.059 170.35,112.77L137.466,131.762C136.236,132.471 134.722,132.471 133.492,131.762L100.615,112.77C99.387,112.059 98.63,110.748 98.63,109.33L98.63,71.346C98.63,69.927 99.387,68.616 100.617,67.907L133.494,48.93Z" style="fill: rgb(51, 51, 51);"/>
    <path d="M430.754,132.304C429.621,132.304 428.493,132.008 427.502,131.434L417.149,125.308C415.603,124.443 416.358,124.137 416.868,123.959C418.93,123.243 419.348,123.078 421.549,121.83C421.778,121.701 422.082,121.75 422.319,121.889L430.272,126.611C430.561,126.771 430.968,126.771 431.233,126.611L462.242,108.713C462.53,108.548 462.716,108.216 462.716,107.874L462.716,72.089C462.716,71.738 462.53,71.412 462.234,71.234L431.238,53.351C430.952,53.184 430.571,53.184 430.283,53.351L399.294,71.239C398.993,71.412 398.803,71.749 398.803,72.089L398.803,107.874C398.803,108.216 398.993,108.541 399.292,108.703L407.786,113.611C412.395,115.915 415.217,113.201 415.217,110.474L415.217,75.142C415.217,74.643 415.619,74.249 416.118,74.249L420.05,74.249C420.542,74.249 420.949,74.643 420.949,75.142L420.949,110.474C420.949,116.626 417.599,120.153 411.767,120.153C409.975,120.153 408.564,120.153 404.624,118.212L396.493,113.531C394.485,112.369 393.241,110.199 393.241,107.874L393.241,72.089C393.241,69.764 394.485,67.593 396.493,66.437L427.502,48.518C429.464,47.409 432.072,47.409 434.019,48.518L465.026,66.437C467.034,67.598 468.283,69.764 468.283,72.089L468.283,107.874C468.283,110.199 467.034,112.362 465.026,113.531L434.019,131.434C433.028,132.008 431.902,132.304 430.754,132.304Z" style="fill-rule: nonzero; fill: rgb(51, 51, 51);"/>
    <path d="M440.332,107.65C426.763,107.65 423.92,101.421 423.92,96.197C423.92,95.7 424.319,95.304 424.816,95.304L428.826,95.304C429.273,95.304 429.647,95.626 429.716,96.063C430.322,100.144 432.126,102.204 440.332,102.204C446.865,102.204 449.646,100.726 449.646,97.261C449.646,95.262 448.858,93.779 438.705,92.785C430.221,91.946 424.973,90.071 424.973,83.284C424.973,77.027 430.247,73.296 439.089,73.296C449.023,73.296 453.938,76.744 454.561,84.142C454.584,84.397 454.494,84.641 454.324,84.832C454.154,85.009 453.918,85.117 453.668,85.117L449.643,85.117C449.226,85.117 448.858,84.821 448.773,84.417C447.807,80.122 445.459,78.75 439.089,78.75C431.957,78.75 431.127,81.235 431.127,83.096C431.127,85.352 432.106,86.008 441.736,87.283C451.265,88.542 455.792,90.326 455.792,97.024C455.792,103.78 450.158,107.65 440.332,107.65Z" style="fill-rule: nonzero; fill: rgb(51, 51, 51);"/>
    <path d="M331.751,82.4C331.986,82.263 332.277,82.263 332.513,82.4L338.824,86.041C339.059,86.177 339.205,86.428 339.205,86.701L339.205,93.988C339.205,94.261 339.059,94.512 338.824,94.648L332.513,98.289C332.277,98.426 331.986,98.426 331.751,98.289L325.445,94.648C325.209,94.512 325.064,94.261 325.064,93.988L325.064,86.701C325.064,86.428 325.209,86.177 325.445,86.041L331.751,82.4Z" style="fill: rgb(51, 51, 51);"/>
  </g>
</svg>