<?xml version="1.0" encoding="utf-8"?>
<svg viewBox="0 0 78.568 25" version="1.1" preserveAspectRatio="xMidYMid" xmlns="http://www.w3.org/2000/svg">
  <defs>
    <path id="path-0" style="fill: none;" d="M 4.432 29.201 C 19.108 33.579 21.276 34.172 23.436 34.464 L 24.104 34.62 C 24.779 34.737 25.526 34.809 26.176 35.037"/>
  </defs>
  <path d="M 23.103 8.102 C 22.812 8.002 22.51 7.908 22.198 7.817 C 22.249 7.609 22.296 7.402 22.338 7.201 C 23.024 3.876 22.576 1.199 21.047 0.318 C 19.582 -0.527 17.184 0.354 14.762 2.46 C 14.53 2.662 14.296 2.879 14.062 3.101 C 13.907 2.954 13.751 2.81 13.597 2.672 C 11.06 0.419 8.516 -0.529 6.989 0.354 C 5.524 1.201 5.09 3.719 5.708 6.868 C 5.765 7.173 5.836 7.483 5.916 7.798 C 5.554 7.902 5.207 8.01 4.876 8.127 C 1.899 9.162 0 10.79 0 12.475 C 0 14.218 2.04 15.962 5.137 17.024 C 5.382 17.106 5.637 17.184 5.899 17.261 C 5.814 17.602 5.74 17.936 5.677 18.262 C 5.088 21.36 5.549 23.816 7.01 24.659 C 8.518 25.528 11.049 24.635 13.515 22.48 C 13.71 22.309 13.906 22.127 14.102 21.939 C 14.355 22.184 14.61 22.415 14.861 22.634 C 17.249 24.688 19.607 25.519 21.068 24.671 C 22.574 23.8 23.064 21.16 22.427 17.947 C 22.379 17.703 22.322 17.452 22.261 17.197 C 22.437 17.144 22.612 17.087 22.783 17.033 C 26.002 15.967 28.101 14.242 28.101 12.475 C 28.101 10.784 26.139 9.146 23.103 8.102 L 23.103 8.102 L 23.103 8.102 Z" style="fill: rgb(51, 51, 51);"/>
  <path d="M 22.406 15.895 C 22.251 15.944 22.093 15.993 21.932 16.041 C 21.579 14.916 21.097 13.718 20.509 12.482 C 21.07 11.275 21.53 10.092 21.878 8.974 C 22.164 9.056 22.444 9.145 22.712 9.237 C 25.314 10.132 26.9 11.457 26.9 12.475 C 26.9 13.562 25.184 14.972 22.406 15.895 L 22.406 15.895 L 22.406 15.895 Z M 21.251 18.181 C 21.53 19.601 21.572 20.885 21.386 21.888 C 21.22 22.792 20.882 23.393 20.467 23.633 C 19.581 24.148 17.687 23.48 15.645 21.722 C 15.41 21.52 15.175 21.306 14.938 21.079 C 15.73 20.213 16.521 19.206 17.293 18.086 C 18.653 17.967 19.934 17.768 21.099 17.501 C 21.156 17.732 21.207 17.958 21.251 18.181 L 21.251 18.181 L 21.251 18.181 Z M 9.579 23.546 C 8.714 23.851 8.025 23.859 7.609 23.62 C 6.722 23.106 6.355 21.133 6.856 18.488 C 6.915 18.185 6.982 17.872 7.063 17.554 C 8.212 17.809 9.488 17.993 10.847 18.102 C 11.626 19.195 12.441 20.203 13.26 21.083 C 13.081 21.256 12.903 21.421 12.726 21.575 C 11.635 22.529 10.542 23.205 9.579 23.546 L 9.579 23.546 L 9.579 23.546 Z M 5.527 15.887 C 4.158 15.42 3.026 14.809 2.249 14.147 C 1.553 13.548 1.2 12.957 1.2 12.475 C 1.2 11.453 2.725 10.147 5.269 9.258 C 5.577 9.152 5.903 9.051 6.238 8.956 C 6.591 10.1 7.049 11.296 7.606 12.505 C 7.043 13.733 6.574 14.948 6.22 16.103 C 5.981 16.037 5.749 15.962 5.527 15.887 L 5.527 15.887 L 5.527 15.887 Z M 6.884 6.638 C 6.358 3.94 6.707 1.903 7.591 1.393 C 8.53 0.848 10.609 1.625 12.8 3.569 C 12.94 3.695 13.081 3.826 13.222 3.958 C 12.406 4.837 11.598 5.834 10.828 6.923 C 9.507 7.043 8.241 7.24 7.079 7.506 C 7.007 7.21 6.941 6.92 6.884 6.638 L 6.884 6.638 L 6.884 6.638 Z M 19.006 9.632 C 18.728 9.15 18.443 8.684 18.152 8.226 C 19.048 8.34 19.907 8.492 20.715 8.675 C 20.472 9.45 20.17 10.262 19.816 11.094 C 19.559 10.61 19.291 10.122 19.006 9.632 L 19.006 9.632 L 19.006 9.632 Z M 14.062 4.817 C 14.616 5.417 15.171 6.086 15.718 6.812 C 15.169 6.788 14.613 6.774 14.05 6.774 C 13.494 6.774 12.942 6.787 12.396 6.812 C 12.942 6.093 13.501 5.423 14.062 4.817 L 14.062 4.817 L 14.062 4.817 Z M 9.089 9.638 C 8.81 10.122 8.546 10.607 8.297 11.093 C 7.945 10.265 7.648 9.447 7.403 8.661 C 8.204 8.482 9.058 8.334 9.949 8.224 C 9.655 8.686 9.367 9.158 9.089 9.638 L 9.089 9.638 L 9.089 9.638 Z M 9.975 16.813 C 9.054 16.71 8.188 16.571 7.386 16.398 C 7.632 15.597 7.94 14.762 8.297 13.915 C 8.547 14.401 8.813 14.886 9.093 15.37 L 9.093 15.37 C 9.378 15.862 9.673 16.343 9.975 16.813 L 9.975 16.813 L 9.975 16.813 Z M 14.096 20.217 C 13.528 19.605 12.96 18.926 12.406 18.196 C 12.944 18.217 13.492 18.228 14.05 18.228 C 14.624 18.228 15.188 18.214 15.745 18.19 C 15.198 18.932 14.648 19.615 14.096 20.217 L 14.096 20.217 L 14.096 20.217 Z M 19.826 13.874 C 20.203 14.729 20.52 15.556 20.77 16.345 C 19.955 16.531 19.076 16.68 18.147 16.794 C 18.441 16.329 18.728 15.852 19.011 15.361 C 19.297 14.866 19.571 14.368 19.826 13.874 L 19.826 13.874 L 19.826 13.874 Z M 17.971 14.761 C 17.532 15.522 17.079 16.251 16.623 16.937 C 15.788 16.997 14.928 17.027 14.05 17.027 C 13.176 17.027 12.325 17.001 11.505 16.946 C 11.028 16.252 10.569 15.521 10.132 14.77 L 10.132 14.77 C 9.697 14.017 9.296 13.259 8.933 12.505 C 9.296 11.75 9.695 10.99 10.128 10.238 L 10.128 10.238 C 10.563 9.487 11.019 8.759 11.491 8.069 C 12.326 8.007 13.185 7.973 14.05 7.973 L 14.05 7.973 C 14.92 7.973 15.777 8.007 16.613 8.07 C 17.077 8.757 17.531 9.48 17.967 10.233 C 18.408 10.994 18.813 11.749 19.18 12.488 C 18.814 13.24 18.41 14 17.971 14.761 L 17.971 14.761 L 17.971 14.761 Z M 20.447 1.358 C 21.388 1.899 21.755 4.089 21.164 6.959 C 21.125 7.141 21.083 7.328 21.036 7.517 C 19.871 7.248 18.606 7.047 17.28 6.924 C 16.507 5.824 15.707 4.823 14.905 3.958 C 15.119 3.751 15.336 3.552 15.551 3.366 C 17.625 1.561 19.563 0.847 20.447 1.358 L 20.447 1.358 L 20.447 1.358 Z" fill="#FFFFFF" style=""/>
  <path d="M 14.05 9.967 C 15.435 9.967 16.56 11.089 16.56 12.475 C 16.56 13.862 15.435 14.984 14.05 14.984 C 12.665 14.984 11.54 13.862 11.54 12.475 C 11.54 11.089 12.665 9.967 14.05 9.967" style="fill: rgb(51, 51, 51);"/>
  <path d="M 37.085 6.043 L 33.408 6.043 L 33.408 11.624 L 36.833 11.624 C 37.804 11.624 38.591 11.528 39.197 11.339 C 39.948 11.12 40.463 10.693 40.74 10.059 C 40.893 9.679 40.969 9.263 40.969 8.811 C 40.969 7.892 40.71 7.203 40.192 6.743 C 39.813 6.385 39.171 6.166 38.266 6.086 C 37.843 6.057 37.449 6.043 37.085 6.043 Z M 39.328 12.532 L 42.666 19.328 L 41.144 19.328 L 37.894 12.718 L 33.408 12.718 L 33.408 19.328 L 31.974 19.328 L 31.974 4.992 L 37.172 4.992 C 39.032 4.992 40.375 5.295 41.199 5.9 C 42.023 6.505 42.436 7.468 42.436 8.789 C 42.436 10.715 41.399 11.963 39.328 12.532 Z M 45.491 13.473 L 51.007 13.473 C 50.977 11.241 50.083 10.124 48.326 10.124 C 47.42 10.124 46.745 10.453 46.301 11.109 C 45.848 11.73 45.579 12.518 45.491 13.473 Z M 51.412 10.453 C 52.031 11.328 52.342 12.448 52.342 13.812 C 52.342 14.083 52.334 14.272 52.32 14.381 L 45.469 14.381 C 45.469 15.577 45.695 16.545 46.148 17.281 C 46.644 18.113 47.399 18.529 48.413 18.529 C 49.719 18.529 50.561 17.949 50.941 16.789 L 52.024 17.052 C 51.863 17.584 51.598 18.047 51.225 18.441 C 50.853 18.835 50.427 19.117 49.945 19.284 C 49.514 19.437 49.015 19.528 48.446 19.558 L 48.413 19.558 C 46.917 19.558 45.804 19.025 45.075 17.96 C 44.397 16.997 44.058 15.779 44.058 14.305 C 44.058 12.721 44.441 11.456 45.207 10.507 C 45.973 9.559 47.027 9.085 48.369 9.085 C 49.733 9.085 50.747 9.541 51.412 10.453 Z M 60.446 19.328 L 60.304 18.19 C 59.174 19.101 57.973 19.558 56.704 19.558 C 55.85 19.558 55.15 19.328 54.603 18.868 C 54.063 18.401 53.793 17.752 53.793 16.92 C 53.793 16.3 53.976 15.746 54.34 15.257 C 54.581 14.929 55.073 14.611 55.817 14.305 C 56.241 14.144 56.952 13.973 57.951 13.79 C 58.12 13.754 58.55 13.684 59.243 13.583 L 60.217 13.451 L 60.217 13.035 C 60.217 11.949 60.041 11.197 59.691 10.781 C 59.334 10.365 58.722 10.157 57.853 10.157 C 56.657 10.157 55.719 10.581 55.04 11.427 C 55.04 11.412 54.76 11.145 54.198 10.628 C 55.015 9.599 56.259 9.085 57.929 9.085 C 60.381 9.085 61.606 10.296 61.606 12.718 L 61.606 19.328 L 60.446 19.328 Z M 60.217 17.172 L 60.217 14.359 L 59.243 14.535 C 58.185 14.717 57.43 14.855 56.977 14.95 C 56.402 15.111 55.938 15.33 55.587 15.607 C 55.267 15.862 55.106 16.238 55.106 16.734 C 55.106 17.982 55.726 18.605 56.966 18.605 C 58.003 18.605 59.086 18.127 60.217 17.172 Z M 65.753 9.785 C 66.409 9.318 67.219 9.085 68.182 9.085 C 68.956 9.085 69.678 9.296 70.349 9.72 C 71.057 10.193 71.549 11.003 71.826 12.149 L 70.666 12.466 C 70.44 11.664 70.133 11.073 69.747 10.693 C 69.361 10.314 68.857 10.124 68.237 10.124 C 67.238 10.124 66.486 10.489 65.983 11.219 C 65.471 11.949 65.217 12.977 65.217 14.305 C 65.217 15.596 65.443 16.611 65.895 17.347 C 66.362 18.135 67.095 18.529 68.095 18.529 C 69.386 18.529 70.258 17.766 70.71 16.242 L 71.793 16.559 C 71.567 17.588 71.079 18.361 70.327 18.879 C 69.67 19.331 68.919 19.558 68.073 19.558 C 66.708 19.558 65.654 19.09 64.91 18.157 C 64.174 17.223 63.805 15.946 63.805 14.327 C 63.805 12.196 64.454 10.683 65.753 9.785 Z M 78.317 18.102 L 78.568 19.01 C 78.073 19.331 77.496 19.492 76.839 19.492 C 75.964 19.492 75.333 19.229 74.946 18.704 C 74.56 18.179 74.366 17.325 74.366 16.143 L 74.366 10.289 L 72.889 10.289 L 72.889 9.293 L 74.465 9.293 L 74.465 6.108 L 75.778 5.747 L 75.778 9.293 L 77.956 9.293 L 77.956 10.289 L 75.778 10.289 L 75.778 16.767 C 75.778 17.883 76.23 18.441 77.135 18.441 C 77.427 18.441 77.821 18.329 78.317 18.102 Z" style="fill: rgb(51, 51, 51); white-space: pre;"/>
</svg>