<?xml version="1.0" encoding="utf-8"?>
<svg viewBox="0 0 78.568 30" version="1.1" preserveAspectRatio="xMidYMid" xmlns="http://www.w3.org/2000/svg">
  <defs>
    <path id="path-0" style="fill: none;" d="M 4.432 29.201 C 19.108 33.579 21.276 34.172 23.436 34.464 L 24.104 34.62 C 24.779 34.737 25.526 34.809 26.176 35.037"/>
  </defs>
  <path d="M 23.103 9.771 C 22.812 9.671 22.51 9.577 22.198 9.486 C 22.249 9.278 22.296 9.071 22.338 8.87 C 23.024 5.545 22.576 2.868 21.047 1.987 C 19.582 1.142 17.184 2.023 14.762 4.129 C 14.53 4.331 14.296 4.548 14.062 4.77 C 13.907 4.623 13.751 4.479 13.597 4.341 C 11.06 2.088 8.516 1.14 6.989 2.023 C 5.524 2.87 5.09 5.388 5.708 8.537 C 5.765 8.842 5.836 9.152 5.916 9.467 C 5.554 9.571 5.207 9.679 4.876 9.796 C 1.899 10.831 0 12.459 0 14.144 C 0 15.887 2.04 17.631 5.137 18.693 C 5.382 18.775 5.637 18.853 5.899 18.93 C 5.814 19.271 5.74 19.605 5.677 19.931 C 5.088 23.029 5.549 25.485 7.01 26.328 C 8.518 27.197 11.049 26.304 13.515 24.149 C 13.71 23.978 13.906 23.796 14.102 23.608 C 14.355 23.853 14.61 24.084 14.861 24.303 C 17.249 26.357 19.607 27.188 21.068 26.34 C 22.574 25.469 23.064 22.829 22.427 19.616 C 22.379 19.372 22.322 19.121 22.261 18.866 C 22.437 18.813 22.612 18.756 22.783 18.702 C 26.002 17.636 28.101 15.911 28.101 14.144 C 28.101 12.453 26.139 10.815 23.103 9.771 L 23.103 9.771 L 23.103 9.771 Z" style="fill: rgb(51, 51, 51);"/>
  <path d="M 22.406 17.564 C 22.251 17.613 22.093 17.662 21.932 17.71 C 21.579 16.585 21.097 15.387 20.509 14.151 C 21.07 12.944 21.53 11.761 21.878 10.643 C 22.164 10.725 22.444 10.814 22.712 10.906 C 25.314 11.801 26.9 13.126 26.9 14.144 C 26.9 15.231 25.184 16.641 22.406 17.564 L 22.406 17.564 L 22.406 17.564 Z M 21.251 19.85 C 21.53 21.27 21.572 22.554 21.386 23.557 C 21.22 24.461 20.882 25.062 20.467 25.302 C 19.581 25.817 17.687 25.149 15.645 23.391 C 15.41 23.189 15.175 22.975 14.938 22.748 C 15.73 21.882 16.521 20.875 17.293 19.755 C 18.653 19.636 19.934 19.437 21.099 19.17 C 21.156 19.401 21.207 19.627 21.251 19.85 L 21.251 19.85 L 21.251 19.85 Z M 9.579 25.215 C 8.714 25.52 8.025 25.528 7.609 25.289 C 6.722 24.775 6.355 22.802 6.856 20.157 C 6.915 19.854 6.982 19.541 7.063 19.223 C 8.212 19.478 9.488 19.662 10.847 19.771 C 11.626 20.864 12.441 21.872 13.26 22.752 C 13.081 22.925 12.903 23.09 12.726 23.244 C 11.635 24.198 10.542 24.874 9.579 25.215 L 9.579 25.215 L 9.579 25.215 Z M 5.527 17.556 C 4.158 17.089 3.026 16.478 2.249 15.816 C 1.553 15.217 1.2 14.626 1.2 14.144 C 1.2 13.122 2.725 11.816 5.269 10.927 C 5.577 10.821 5.903 10.72 6.238 10.625 C 6.591 11.769 7.049 12.965 7.606 14.174 C 7.043 15.402 6.574 16.617 6.22 17.772 C 5.981 17.706 5.749 17.631 5.527 17.556 L 5.527 17.556 L 5.527 17.556 Z M 6.884 8.307 C 6.358 5.609 6.707 3.572 7.591 3.062 C 8.53 2.517 10.609 3.294 12.8 5.238 C 12.94 5.364 13.081 5.495 13.222 5.627 C 12.406 6.506 11.598 7.503 10.828 8.592 C 9.507 8.712 8.241 8.909 7.079 9.175 C 7.007 8.879 6.941 8.589 6.884 8.307 L 6.884 8.307 L 6.884 8.307 Z M 19.006 11.301 C 18.728 10.819 18.443 10.353 18.152 9.895 C 19.048 10.009 19.907 10.161 20.715 10.344 C 20.472 11.119 20.17 11.931 19.816 12.763 C 19.559 12.279 19.291 11.791 19.006 11.301 L 19.006 11.301 L 19.006 11.301 Z M 14.062 6.486 C 14.616 7.086 15.171 7.755 15.718 8.481 C 15.169 8.457 14.613 8.443 14.05 8.443 C 13.494 8.443 12.942 8.456 12.396 8.481 C 12.942 7.762 13.501 7.092 14.062 6.486 L 14.062 6.486 L 14.062 6.486 Z M 9.089 11.307 C 8.81 11.791 8.546 12.276 8.297 12.762 C 7.945 11.934 7.648 11.116 7.403 10.33 C 8.204 10.151 9.058 10.003 9.949 9.893 C 9.655 10.355 9.367 10.827 9.089 11.307 L 9.089 11.307 L 9.089 11.307 Z M 9.975 18.482 C 9.054 18.379 8.188 18.24 7.386 18.067 C 7.632 17.266 7.94 16.431 8.297 15.584 C 8.547 16.07 8.813 16.555 9.093 17.039 L 9.093 17.039 C 9.378 17.531 9.673 18.012 9.975 18.482 L 9.975 18.482 L 9.975 18.482 Z M 14.096 21.886 C 13.528 21.274 12.96 20.595 12.406 19.865 C 12.944 19.886 13.492 19.897 14.05 19.897 C 14.624 19.897 15.188 19.883 15.745 19.859 C 15.198 20.601 14.648 21.284 14.096 21.886 L 14.096 21.886 L 14.096 21.886 Z M 19.826 15.543 C 20.203 16.398 20.52 17.225 20.77 18.014 C 19.955 18.2 19.076 18.349 18.147 18.463 C 18.441 17.998 18.728 17.521 19.011 17.03 C 19.297 16.535 19.571 16.037 19.826 15.543 L 19.826 15.543 L 19.826 15.543 Z M 17.971 16.43 C 17.532 17.191 17.079 17.92 16.623 18.606 C 15.788 18.666 14.928 18.696 14.05 18.696 C 13.176 18.696 12.325 18.67 11.505 18.615 C 11.028 17.921 10.569 17.19 10.132 16.439 L 10.132 16.439 C 9.697 15.686 9.296 14.928 8.933 14.174 C 9.296 13.419 9.695 12.659 10.128 11.907 L 10.128 11.907 C 10.563 11.156 11.019 10.428 11.491 9.738 C 12.326 9.676 13.185 9.642 14.05 9.642 L 14.05 9.642 C 14.92 9.642 15.777 9.676 16.613 9.739 C 17.077 10.426 17.531 11.149 17.967 11.902 C 18.408 12.663 18.813 13.418 19.18 14.157 C 18.814 14.909 18.41 15.669 17.971 16.43 L 17.971 16.43 L 17.971 16.43 Z M 20.447 3.027 C 21.388 3.568 21.755 5.758 21.164 8.628 C 21.125 8.81 21.083 8.997 21.036 9.186 C 19.871 8.917 18.606 8.716 17.28 8.593 C 16.507 7.493 15.707 6.492 14.905 5.627 C 15.119 5.42 15.336 5.221 15.551 5.035 C 17.625 3.23 19.563 2.516 20.447 3.027 L 20.447 3.027 L 20.447 3.027 Z" fill="#FFFFFF" style=""/>
  <path d="M 14.05 11.636 C 15.435 11.636 16.56 12.758 16.56 14.144 C 16.56 15.531 15.435 16.653 14.05 16.653 C 12.665 16.653 11.54 15.531 11.54 14.144 C 11.54 12.758 12.665 11.636 14.05 11.636" style="fill: rgb(51, 51, 51);"/>
  <path d="M 36.258 7.349 L 32.581 7.349 L 32.581 12.93 L 36.006 12.93 C 36.977 12.93 37.764 12.834 38.37 12.645 C 39.121 12.426 39.636 11.999 39.913 11.365 C 40.066 10.985 40.142 10.569 40.142 10.117 C 40.142 9.198 39.883 8.509 39.365 8.049 C 38.986 7.691 38.344 7.472 37.439 7.392 C 37.016 7.363 36.622 7.349 36.258 7.349 Z M 38.501 13.838 L 41.839 20.634 L 40.317 20.634 L 37.067 14.024 L 32.581 14.024 L 32.581 20.634 L 31.147 20.634 L 31.147 6.298 L 36.345 6.298 C 38.205 6.298 39.548 6.601 40.372 7.206 C 41.196 7.811 41.609 8.774 41.609 10.095 C 41.609 12.021 40.572 13.269 38.501 13.838 Z M 44.664 14.779 L 50.18 14.779 C 50.15 12.547 49.256 11.43 47.499 11.43 C 46.593 11.43 45.918 11.759 45.474 12.415 C 45.021 13.036 44.752 13.824 44.664 14.779 Z M 50.585 11.759 C 51.204 12.634 51.515 13.754 51.515 15.118 C 51.515 15.389 51.507 15.578 51.493 15.687 L 44.642 15.687 C 44.642 16.883 44.868 17.851 45.321 18.587 C 45.817 19.419 46.572 19.835 47.586 19.835 C 48.892 19.835 49.734 19.255 50.114 18.095 L 51.197 18.358 C 51.036 18.89 50.771 19.353 50.398 19.747 C 50.026 20.141 49.6 20.423 49.118 20.59 C 48.687 20.743 48.188 20.834 47.619 20.864 L 47.586 20.864 C 46.09 20.864 44.977 20.331 44.248 19.266 C 43.57 18.303 43.231 17.085 43.231 15.611 C 43.231 14.027 43.614 12.762 44.38 11.813 C 45.146 10.865 46.2 10.391 47.542 10.391 C 48.906 10.391 49.92 10.847 50.585 11.759 Z M 59.619 20.634 L 59.477 19.496 C 58.347 20.407 57.146 20.864 55.877 20.864 C 55.023 20.864 54.323 20.634 53.776 20.174 C 53.236 19.707 52.966 19.058 52.966 18.226 C 52.966 17.606 53.149 17.052 53.513 16.563 C 53.754 16.235 54.246 15.917 54.99 15.611 C 55.414 15.45 56.125 15.279 57.124 15.096 C 57.293 15.06 57.723 14.99 58.416 14.889 L 59.39 14.757 L 59.39 14.341 C 59.39 13.255 59.214 12.503 58.864 12.087 C 58.507 11.671 57.895 11.463 57.026 11.463 C 55.83 11.463 54.892 11.887 54.213 12.733 C 54.213 12.718 53.933 12.451 53.371 11.934 C 54.188 10.905 55.432 10.391 57.102 10.391 C 59.554 10.391 60.779 11.602 60.779 14.024 L 60.779 20.634 L 59.619 20.634 Z M 59.39 18.478 L 59.39 15.665 L 58.416 15.841 C 57.358 16.023 56.603 16.161 56.15 16.256 C 55.575 16.417 55.111 16.636 54.76 16.913 C 54.44 17.168 54.279 17.544 54.279 18.04 C 54.279 19.288 54.899 19.911 56.139 19.911 C 57.176 19.911 58.259 19.433 59.39 18.478 Z M 64.926 11.091 C 65.582 10.624 66.392 10.391 67.355 10.391 C 68.129 10.391 68.851 10.602 69.522 11.026 C 70.23 11.499 70.722 12.309 70.999 13.455 L 69.839 13.772 C 69.613 12.97 69.306 12.379 68.92 11.999 C 68.534 11.62 68.03 11.43 67.41 11.43 C 66.411 11.43 65.659 11.795 65.156 12.525 C 64.644 13.255 64.39 14.283 64.39 15.611 C 64.39 16.902 64.616 17.917 65.068 18.653 C 65.535 19.441 66.268 19.835 67.268 19.835 C 68.559 19.835 69.431 19.072 69.883 17.548 L 70.966 17.865 C 70.74 18.894 70.252 19.667 69.5 20.185 C 68.843 20.637 68.092 20.864 67.246 20.864 C 65.881 20.864 64.827 20.396 64.083 19.463 C 63.347 18.529 62.978 17.252 62.978 15.633 C 62.978 13.502 63.627 11.989 64.926 11.091 Z M 77.49 19.408 L 77.741 20.316 C 77.246 20.637 76.669 20.798 76.012 20.798 C 75.137 20.798 74.506 20.535 74.119 20.01 C 73.733 19.485 73.539 18.631 73.539 17.449 L 73.539 11.595 L 72.062 11.595 L 72.062 10.599 L 73.638 10.599 L 73.638 7.414 L 74.951 7.053 L 74.951 10.599 L 77.129 10.599 L 77.129 11.595 L 74.951 11.595 L 74.951 18.073 C 74.951 19.189 75.403 19.747 76.308 19.747 C 76.6 19.747 76.994 19.635 77.49 19.408 Z" style="fill: rgb(51, 51, 51); white-space: pre;"/>
</svg>