<?xml version="1.0" encoding="utf-8"?>
<svg version="1.1" viewBox="0 0 101 25" xmlns="http://www.w3.org/2000/svg">
  <g transform="matrix(0.715599, 0, 0, 0.715599, 22.229853, 4.520656)" style="">
    <path d="M 13.71 2.275 L 8.004 2.275 L 8.004 18.79 L 5.672 18.79 L 5.672 2.275 L 0 2.275 L 0 0.325 L 13.71 0.325 L 13.71 2.275 Z M 24.464 5.591 L 17.957 20.904 C 16.808 23.634 15.172 25 13.085 25 C 12.493 25 12.005 24.934 11.623 24.838 L 11.623 22.952 C 12.11 23.114 12.562 23.179 12.945 23.179 C 14.093 23.179 14.929 22.529 15.52 21.262 L 16.635 18.758 L 11.136 5.591 L 13.642 5.591 L 17.469 15.735 C 17.505 15.864 17.609 16.19 17.748 16.742 L 17.816 16.742 C 17.852 16.547 17.957 16.222 18.095 15.767 L 22.098 5.591 L 24.464 5.591 L 24.464 5.591 Z M 28.152 16.873 L 28.083 16.873 L 28.083 24.838 L 25.821 24.838 L 25.821 5.591 L 28.083 5.591 L 28.083 7.899 L 28.152 7.899 C 29.267 6.144 30.901 5.267 33.024 5.267 C 34.834 5.267 36.261 5.851 37.27 7.022 C 38.279 8.192 38.801 9.785 38.801 11.768 C 38.801 13.979 38.209 15.735 37.062 17.068 C 35.913 18.401 34.346 19.05 32.364 19.05 C 30.589 19.116 29.162 18.368 28.152 16.873 L 28.152 16.873 Z M 28.118 11.573 L 28.118 13.426 C 28.118 14.532 28.501 15.442 29.267 16.19 C 30.031 16.937 30.972 17.328 32.154 17.328 C 33.512 17.328 34.591 16.84 35.391 15.864 C 36.156 14.889 36.539 13.524 36.539 11.768 C 36.539 10.305 36.191 9.136 35.46 8.323 C 34.729 7.477 33.755 7.088 32.503 7.088 C 31.18 7.088 30.136 7.51 29.336 8.355 C 28.501 9.2 28.118 10.273 28.118 11.573 L 28.118 11.573 Z M 52.651 12.712 L 42.699 12.712 C 42.733 14.174 43.151 15.312 43.952 16.124 C 44.752 16.937 45.866 17.328 47.293 17.328 C 48.893 17.328 50.354 16.84 51.677 15.864 L 51.677 17.848 C 50.424 18.692 48.788 19.116 46.769 19.116 C 44.787 19.116 43.22 18.53 42.071 17.328 C 40.924 16.124 40.367 14.434 40.367 12.288 C 40.367 10.24 40.993 8.55 42.247 7.282 C 43.498 5.982 45.03 5.331 46.874 5.331 C 48.719 5.331 50.146 5.884 51.155 7.022 C 52.164 8.127 52.686 9.687 52.686 11.671 L 52.651 12.712 L 52.651 12.712 Z M 50.32 10.924 C 50.32 9.687 50.006 8.745 49.38 8.063 C 48.753 7.379 47.884 7.055 46.805 7.055 C 45.726 7.055 44.822 7.412 44.09 8.127 C 43.36 8.843 42.873 9.785 42.699 10.924 L 50.32 10.924 Z M 53.765 18.141 L 53.765 16.677 C 55.192 17.523 56.618 17.945 58.08 17.945 C 59.611 17.945 60.794 17.653 61.595 17.035 C 62.396 16.417 62.778 15.604 62.778 14.532 C 62.778 13.589 62.498 12.841 61.977 12.256 C 61.455 11.704 60.273 10.924 58.497 9.947 C 56.479 8.843 55.227 7.932 54.705 7.217 C 54.183 6.469 53.904 5.624 53.904 4.682 C 53.904 3.381 54.462 2.275 55.539 1.366 C 56.618 0.455 58.08 0 59.89 0 C 61.073 0 62.255 0.195 63.404 0.553 L 63.404 1.886 C 62.255 1.398 61.003 1.138 59.681 1.138 C 58.324 1.138 57.279 1.463 56.479 2.081 C 55.679 2.73 55.297 3.511 55.297 4.487 C 55.297 5.429 55.575 6.177 56.097 6.73 C 56.618 7.282 57.801 8.063 59.576 9.005 C 61.42 9.98 62.639 10.858 63.265 11.606 C 63.891 12.354 64.169 13.232 64.169 14.239 C 64.169 15.669 63.647 16.808 62.603 17.717 C 61.56 18.628 60.063 19.05 58.149 19.05 C 57.453 19.05 56.688 18.953 55.784 18.758 C 54.878 18.563 54.216 18.401 53.765 18.141 L 53.765 18.141 Z M 75.932 18.205 C 74.889 18.79 73.635 19.116 72.173 19.116 C 70.259 19.116 68.694 18.498 67.51 17.262 C 66.327 16.027 65.736 14.434 65.736 12.419 C 65.736 10.338 66.397 8.615 67.72 7.282 C 69.042 5.949 70.747 5.267 72.835 5.267 C 73.914 5.267 74.957 5.462 75.967 5.884 L 75.967 7.217 C 74.957 6.632 73.844 6.339 72.661 6.339 C 70.991 6.339 69.667 6.892 68.623 7.997 C 67.58 9.103 67.093 10.566 67.093 12.321 C 67.093 14.045 67.58 15.409 68.52 16.45 C 69.459 17.49 70.712 18.01 72.243 18.01 C 73.669 18.01 74.889 17.653 75.932 16.97 L 75.932 18.205 L 75.932 18.205 Z M 84.353 6.826 C 83.936 6.535 83.449 6.404 82.857 6.404 C 81.744 6.404 80.804 6.957 80.073 8.03 C 79.307 9.103 78.96 10.631 78.96 12.614 L 78.96 18.823 L 77.706 18.823 L 77.706 5.591 L 78.96 5.591 L 78.96 8.518 L 79.029 8.518 C 79.342 7.51 79.865 6.73 80.56 6.177 C 81.256 5.624 82.057 5.331 82.996 5.331 C 83.517 5.331 84.004 5.397 84.388 5.559 L 84.388 6.826 L 84.353 6.826 L 84.353 6.826 Z M 86.371 2.275 C 86.093 2.275 85.85 2.179 85.641 1.983 C 85.431 1.788 85.328 1.561 85.328 1.268 C 85.328 0.975 85.431 0.748 85.641 0.585 C 85.85 0.422 86.093 0.325 86.371 0.325 C 86.651 0.325 86.894 0.422 87.137 0.585 C 87.345 0.748 87.45 0.975 87.45 1.268 C 87.45 1.528 87.345 1.788 87.137 1.983 C 86.894 2.179 86.651 2.275 86.371 2.275 Z M 85.745 18.79 L 85.745 5.591 L 86.998 5.591 L 86.998 18.79 L 85.745 18.79 Z M 91.348 16.45 L 91.278 16.45 L 91.278 24.869 L 90.026 24.869 L 90.026 5.591 L 91.278 5.591 L 91.278 8.323 L 91.348 8.323 C 91.87 7.348 92.566 6.599 93.506 6.079 C 94.446 5.559 95.489 5.299 96.602 5.299 C 98.411 5.299 99.804 5.884 100.814 7.022 C 101.823 8.192 102.31 9.753 102.31 11.735 C 102.31 13.947 101.718 15.735 100.569 17.1 C 99.422 18.465 97.89 19.148 96.012 19.148 C 93.923 19.116 92.357 18.238 91.348 16.45 Z M 91.278 11.541 L 91.278 13.199 C 91.278 14.532 91.73 15.669 92.6 16.613 C 93.506 17.555 94.654 18.043 96.115 18.043 C 97.541 18.043 98.725 17.457 99.631 16.32 C 100.535 15.149 100.987 13.654 100.987 11.768 C 100.987 10.111 100.569 8.81 99.735 7.835 C 98.899 6.859 97.821 6.372 96.428 6.372 C 94.792 6.372 93.506 6.892 92.6 7.932 C 91.697 8.972 91.278 10.143 91.278 11.541 Z M 110 18.596 C 109.34 18.888 108.712 19.018 108.156 19.018 C 106.068 19.018 105.024 17.848 105.024 15.507 L 105.024 6.697 L 102.484 6.697 L 102.484 5.624 L 105.024 5.624 L 105.024 2.179 L 105.651 1.983 L 106.277 1.788 L 106.277 5.624 L 110 5.624 L 110 6.697 L 106.277 6.697 L 106.277 15.409 C 106.277 16.32 106.416 16.97 106.729 17.393 C 107.042 17.815 107.565 18.01 108.295 18.01 C 108.817 18.01 109.375 17.848 110 17.523 L 110 18.596 L 110 18.596 Z" style="fill: rgb(51, 51, 51);"/>
  </g>
  <polygon points="0 12.448 0 21.964 9.516 21.964 19.031 21.964 19.031 12.448 19.031 2.933 9.516 2.933 0 2.933" style="fill: rgb(51, 51, 51);"/>
  <path d="M 11.939 19.331 L 11.944 18.697 L 10.936 18.697 L 9.929 18.697 L 9.929 15.834 L 9.929 12.971 L 9.216 12.971 L 8.503 12.971 L 8.503 15.834 L 8.503 18.697 L 7.496 18.697 L 6.488 18.697 L 6.488 19.319 C 6.488 19.663 6.495 19.951 6.505 19.958 C 6.513 19.968 7.739 19.973 9.226 19.97 L 11.932 19.963 L 11.939 19.331 Z" fill="#FFFFFF" transform="matrix(-1, 0, 0, -1, 18.432, 32.941863)"/>
  <path d="M 15.568 13.051 C 15.953 13.148 16.246 13.318 16.516 13.597 C 16.655 13.747 16.862 14.018 16.879 14.083 C 16.883 14.102 16.225 14.545 15.825 14.793 C 15.811 14.802 15.753 14.74 15.688 14.644 C 15.494 14.36 15.289 14.237 14.976 14.216 C 14.517 14.184 14.221 14.425 14.223 14.827 C 14.223 14.944 14.24 15.014 14.288 15.11 C 14.389 15.319 14.577 15.444 15.166 15.699 C 16.251 16.166 16.715 16.474 17.004 16.911 C 17.326 17.4 17.398 18.179 17.179 18.759 C 16.939 19.388 16.342 19.817 15.503 19.959 C 15.243 20.004 14.628 19.997 14.349 19.947 C 13.74 19.838 13.163 19.538 12.807 19.144 C 12.668 18.99 12.396 18.588 12.413 18.559 C 12.42 18.549 12.482 18.511 12.552 18.47 C 12.619 18.431 12.874 18.285 13.115 18.145 L 13.55 17.893 L 13.642 18.027 C 13.769 18.222 14.048 18.489 14.216 18.578 C 14.7 18.833 15.363 18.797 15.691 18.504 C 15.83 18.376 15.888 18.244 15.888 18.049 C 15.888 17.873 15.866 17.796 15.775 17.664 C 15.657 17.496 15.417 17.354 14.734 17.058 C 13.952 16.722 13.615 16.512 13.307 16.181 C 13.129 15.988 12.961 15.68 12.891 15.423 C 12.834 15.209 12.819 14.673 12.865 14.456 C 13.026 13.701 13.596 13.174 14.419 13.017 C 14.685 12.967 15.306 12.987 15.568 13.051 Z" fill="#FFFFFF"/>
</svg>