<?xml version="1.0" encoding="utf-8"?>
<svg version="1.1" id="svg15" viewBox="0 0 75.3 25" xmlns="http://www.w3.org/2000/svg">
  <polygon style="fill: rgb(51, 51, 51);" id="polygon9" points="9.998 3.599 19.997 20.982 0 20.982"/>
  <path style="fill: rgb(51, 51, 51); stroke-width: 0.211578;" id="path11" d="M 23.224 18.297 L 30.643 18.297 L 30.643 17.035 L 25.073 17.035 L 30.551 9.372 L 30.551 8.27 L 23.313 8.27 L 23.313 9.532 L 28.701 9.532 L 23.224 17.195 Z M 38.407 18.297 L 45.064 18.297 L 45.064 17.035 L 39.913 17.035 L 39.913 13.817 L 44.393 13.817 L 44.393 12.554 L 39.913 12.554 L 39.913 9.532 L 45.064 9.532 L 45.064 8.27 L 38.407 8.27 Z M 53.082 18.297 L 59.576 18.297 L 59.576 17.035 L 57.091 17.035 L 57.091 9.532 L 59.576 9.532 L 59.576 8.27 L 53.082 8.27 L 53.082 9.532 L 55.585 9.532 L 55.585 17.035 L 53.082 17.035 Z M 70.261 18.297 L 71.767 18.297 L 71.767 9.532 L 75.25 9.532 L 75.25 8.27 L 66.814 8.27 L 66.814 9.532 L 70.261 9.532 Z"/>
</svg>