<?xml version="1.0" encoding="utf-8"?>
<svg version="1.1" id="svg15" viewBox="0 0 76.4 30" xmlns="http://www.w3.org/2000/svg">
  <polygon style="fill: rgb(51, 51, 51);" id="polygon9" points="10.505 5.368 21.011 23.632 0 23.632"/>
  <path style="fill: rgb(51, 51, 51); stroke-width: 0.211578;" id="path11" d="M 24.345 20.563 L 31.764 20.563 L 31.764 19.301 L 26.194 19.301 L 31.672 11.638 L 31.672 10.536 L 24.434 10.536 L 24.434 11.798 L 29.822 11.798 L 24.345 19.461 Z M 39.528 20.563 L 46.185 20.563 L 46.185 19.301 L 41.034 19.301 L 41.034 16.083 L 45.514 16.083 L 45.514 14.82 L 41.034 14.82 L 41.034 11.798 L 46.185 11.798 L 46.185 10.536 L 39.528 10.536 Z M 54.203 20.563 L 60.697 20.563 L 60.697 19.301 L 58.212 19.301 L 58.212 11.798 L 60.697 11.798 L 60.697 10.536 L 54.203 10.536 L 54.203 11.798 L 56.706 11.798 L 56.706 19.301 L 54.203 19.301 Z M 71.382 20.563 L 72.888 20.563 L 72.888 11.798 L 76.371 11.798 L 76.371 10.536 L 67.935 10.536 L 67.935 11.798 L 71.382 11.798 Z"/>
</svg>